<?xml version="1.0" encoding="UTF-8"?>
<svg version="1.1" xmlns="http://www.w3.org/2000/svg" width="1280" height="1280">
<path d="M0 0 C3.54099526 2.81089315 6.79894702 5.80992833 10 9 C10.63808594 9.61488281 11.27617188 10.22976562 11.93359375 10.86328125 C27.08906315 26.62631958 27.43921133 46.4374114 27.29296875 66.921875 C27.28736514 69.23642704 27.28309866 71.55098266 27.28010559 73.86553955 C27.26871706 79.92193636 27.23930196 85.97811321 27.20599365 92.03442383 C27.17516295 98.22864813 27.16157259 104.42290839 27.14648438 110.6171875 C27.11442611 122.74488767 27.06330301 134.87242546 27 147 C27.91894043 147.29189209 28.83788086 147.58378418 29.78466797 147.88452148 C33.52395436 149.18177278 36.76496533 151.01014267 40.125 153.0625 C40.77879639 153.45953125 41.43259277 153.8565625 42.10620117 154.265625 C52.23145794 160.51246873 61.35587801 167.8299105 70 176 C70.79921875 176.73476562 71.5984375 177.46953125 72.421875 178.2265625 C93.09524152 197.91234781 105.67197083 223.677635 112.65625 251.05859375 C116.06692557 263.93461868 120.62204361 276.33337481 125.25 288.8125 C126.13942802 291.23187 127.028002 293.65155412 127.91577148 296.0715332 C129.72705216 301.00431637 131.5434464 305.93516519 133.36474609 310.86425781 C135.8002768 317.45571871 138.22476388 324.0511758 140.64453125 330.6484375 C143.22349843 337.6781118 145.80476433 344.70692763 148.39016724 351.73423767 C153.44760884 365.4819008 158.47653183 379.23989253 163.5 393 C169.55388044 409.579159 175.61482026 426.1557018 181.69604492 442.72485352 C182.47032075 444.83475113 183.24425729 446.9447733 184.01782227 449.05493164 C185.09158553 451.98361327 186.16654911 454.91185034 187.2421875 457.83984375 C187.57285217 458.74092865 187.90351685 459.64201355 188.24420166 460.57040405 C190.47452556 466.62867932 192.78526907 472.64815535 195.19189453 478.63891602 C196 481 196 481 196 484 C196.825 483.80664062 197.65 483.61328125 198.5 483.4140625 C199.655 483.15367187 200.81 482.89328125 202 482.625 C203.670625 482.24214844 203.670625 482.24214844 205.375 481.8515625 C217.61579018 479.42986004 229.85987864 478.58947849 242.3125 478.625 C243.40576599 478.62581573 243.40576599 478.62581573 244.52111816 478.62664795 C287.87720081 478.77370147 329.16972087 492.49329482 364.31103516 517.79980469 C366.83517544 519.59348402 369.41394612 521.2970855 372 523 C372.36931641 522.15115234 372.36931641 522.15115234 372.74609375 521.28515625 C374.21536224 518.60751742 375.97752435 516.66956388 378.0625 514.4375 C381.23785117 510.97439841 384.29828184 507.46804744 387.25 503.8125 C391.44699269 498.62495834 395.79207355 493.58224026 400.19555664 488.57006836 C402.71005478 485.69630361 405.17873929 482.82149394 407.48046875 479.7734375 C413.04325181 472.46797727 418.29740734 467.78656451 427.625 466.5 C434.77361588 467.5590542 439.33426405 469.40882267 443.8125 475.25 C447.22041219 480.27218639 447.77148899 485.04851348 447 491 C445.1765413 497.29032062 440.7893693 501.69741057 436.41015625 506.3828125 C434.08087292 508.91218013 431.90678277 511.51038842 429.75 514.1875 C425.08679044 519.94555006 420.23981879 525.53004064 415.375 531.1171875 C411.95936403 535.04039175 408.57026647 538.98594529 405.1875 542.9375 C404.40475708 543.85172729 404.40475708 543.85172729 403.60620117 544.78442383 C402.40378533 546.18931744 401.20183574 547.5946101 400 549 C401.40733415 552.22579962 403.34783013 554.87974462 405.47729492 557.66748047 C434.7955038 596.10634088 449.04727461 641.82536791 448 690 C448.8499202 690.06715462 448.8499202 690.06715462 449.7170105 690.13566589 C457.02688179 690.7829126 464.17305722 692.01503466 471.3828125 693.36328125 C472.63706024 693.5965361 473.89130798 693.82979095 475.18356323 694.07011414 C477.82125932 694.56284134 480.45847548 695.05764766 483.09521484 695.55541992 C486.45288271 696.18844626 489.81315745 696.80628542 493.1742878 697.42062092 C496.41245942 698.01587791 499.64739697 698.62825037 502.8828125 699.23828125 C504.07883087 699.45511063 505.27484924 699.67194 506.5071106 699.89533997 C513.55533265 701.24897681 520.50447709 702.61579947 525.83984375 707.78125 C526.20207031 708.3484375 526.56429688 708.915625 526.9375 709.5 C527.31777344 710.0671875 527.69804688 710.634375 528.08984375 711.21875 C530.94739156 716.81120409 530.68971271 722.85826053 528.8125 728.6875 C525.76512285 734.25684444 522.02115717 737.8814447 516 740 C507.59393805 740.74698829 499.58875259 739.24078612 491.37890625 737.59375 C489.45046532 737.220753 487.52202373 736.84775938 485.59354305 736.47496796 C482.92487365 735.95647263 480.25808588 735.42863718 477.59124756 734.90081787 C472.89482326 733.97294945 468.1958545 733.05809908 463.49632263 732.14611816 C461.0013505 731.66096941 458.50722219 731.17145628 456.01405334 730.67712402 C454.88865646 730.45689575 453.76325958 730.23666748 452.60375977 730.00976562 C451.6154567 729.81435181 450.62715363 729.61893799 449.60890198 729.41760254 C446.78206544 728.89462915 446.78206544 728.89462915 443 729 C442.8040625 729.82757812 442.608125 730.65515625 442.40625 731.5078125 C429.23175014 784.09223868 396.40060719 829.70219918 350 858 C345.7336144 860.46545571 341.38074626 862.74477341 337 865 C342.04305651 879.48808615 347.17758724 893.94160154 352.375 908.375 C352.76261505 909.45203186 353.1502301 910.52906372 353.54959106 911.63873291 C359.10862473 927.07708628 364.73674501 942.48845208 370.4375 957.875 C371.12570219 959.73411193 371.81385305 961.59324285 372.50195312 963.45239258 C375.51322938 971.58676694 378.52538079 979.72081086 381.54248047 987.85302734 C383.73568782 993.76734351 385.92003212 999.68487858 388.09939575 1005.60430908 C388.93902444 1007.88056076 389.78145992 1010.15577939 390.62692261 1012.42987061 C399.08829555 1035.19625947 399.08829555 1035.19625947 401 1046 C401.226875 1047.258125 401.45375 1048.51625 401.6875 1049.8125 C404.28548648 1075.52174121 397.96777907 1101.86724344 382 1122.4375 C378.79321192 1126.31503061 375.25178725 1129.54880391 371.2734375 1132.625 C368.7293576 1137.36978706 371.54884194 1143.46230642 372.98968506 1148.37316895 C374.21612138 1152.28550931 375.48202366 1156.18298148 376.76171875 1160.078125 C377.23584867 1161.53553898 377.70945527 1162.9931233 378.18257141 1164.4508667 C379.42601613 1168.27770043 380.67604663 1172.1023494 381.92767334 1175.92651367 C383.17610152 1179.74410256 384.41901133 1183.56348536 385.66210938 1187.3828125 C385.90461992 1188.1275457 386.14713047 1188.8722789 386.39698982 1189.63957977 C387.60049623 1193.33559229 388.80312675 1197.03188704 390.00436401 1200.7286377 C390.46821597 1202.1556886 390.9320929 1203.58273138 391.39599609 1205.00976562 C391.61950682 1205.69756355 391.84301754 1206.38536148 392.07330132 1207.09400177 C393.44475042 1211.30930067 394.83397352 1215.51833159 396.23291016 1219.72460938 C396.87029406 1221.6653065 397.50751565 1223.60605695 398.14453125 1225.546875 C398.42656906 1226.37890442 398.70860687 1227.21093384 398.99919128 1228.06817627 C401.9982468 1237.28207968 403.26898227 1246.02193419 399 1255 C395.30055753 1260.66141592 390.64227092 1265.2294609 384 1267 C376.39322249 1268.02398928 370.17807536 1267.31180123 363.31640625 1263.875 C356.14541983 1258.0704916 352.25513915 1249.26136277 348.0625 1241.25 C347.40771068 1240.01149621 346.75217743 1238.77338548 346.09594727 1237.53564453 C344.73588279 1234.96896066 343.37899927 1232.40063422 342.02441406 1229.83105469 C338.85771709 1223.83021892 335.64552336 1217.85381809 332.4375 1211.875 C331.19790316 1209.56120516 329.9583198 1207.24740308 328.71875 1204.93359375 C324.96473446 1197.93144398 321.20322349 1190.93335951 317.4375 1183.9375 C316.87796631 1182.89770996 316.31843262 1181.85791992 315.74194336 1180.78662109 C314.68025626 1178.81548762 313.60952441 1176.84919288 312.52880859 1174.88842773 C311.48420466 1172.9148236 310.51021616 1170.90264161 309.60009766 1168.86352539 C307.28957457 1163.48819781 307.28957457 1163.48819781 302.88061523 1160.01586914 C300.37083301 1159.60248404 298.04254281 1159.52654339 295.5 1159.5625 C293.70789253 1159.48630606 291.91617542 1159.4003186 290.125 1159.3046875 C289.25101563 1159.26569336 288.37703125 1159.22669922 287.4765625 1159.18652344 C264.66372438 1157.4683641 242.47405667 1142.0847253 227.75 1125.3125 C217.54982276 1112.27985685 211.63502474 1097.72749556 206.125 1082.25 C205.39713244 1080.23948992 204.66784697 1078.22949268 203.93725586 1076.2199707 C202.39928172 1071.98392523 200.86886679 1067.74526113 199.34423828 1063.50439453 C197.02023075 1057.04590985 194.66841467 1050.59781701 192.30859375 1044.15234375 C191.72310005 1042.5529747 191.72310005 1042.5529747 191.1257782 1040.92129517 C190.33441243 1038.75976333 189.54298472 1036.59825417 188.75149536 1034.43676758 C187.16399984 1030.09848511 185.5803182 1025.75881511 183.99674988 1021.4190979 C179.13155317 1008.08640506 174.2505711 994.75954721 169.35787964 981.43692017 C168.59101327 979.3487585 167.82434342 977.26052464 167.05789185 975.17221069 C162.74850734 963.43169511 158.41203733 951.70235872 154 940 C150.80935463 941.23931273 147.73998262 942.5819689 144.69140625 944.13671875 C132.13247769 950.41186046 119.52425706 955.22517885 106 959 C105.37786621 959.19368164 104.75573242 959.38736328 104.11474609 959.58691406 C101.26041747 960.14446706 98.60484291 959.99913935 95.69921875 959.88671875 C80.31513446 959.46819049 66.28098094 960.23590344 51.15209961 963.50561523 C40.56806295 965.77518871 29.98736132 967.38626282 19.25 968.75 C18.10179276 968.90062393 18.10179276 968.90062393 16.9303894 969.05429077 C-7.75402083 972.27847603 -32.42391067 973.38379809 -57.29868698 973.31805801 C-59.47509587 973.3124023 -61.65149691 973.30959146 -63.82791138 973.30697632 C-85.67517739 973.26884648 -107.30409515 972.73290149 -129 970 C-130.42867587 969.82637133 -131.85738774 969.65303871 -133.28613281 969.47998047 C-164.66454704 965.6260242 -195.52529049 959.38996912 -226 951 C-229.35549461 958.87386681 -232.46167673 966.79709537 -235.34375 974.85546875 C-235.74591736 975.97155014 -236.14808472 977.08763153 -236.56243896 978.23753357 C-237.42712438 980.63744329 -238.29059617 983.03779056 -239.1529541 985.4385376 C-241.47480798 991.90048733 -243.80744186 998.35854009 -246.140625 1004.81640625 C-246.38058952 1005.48081978 -246.62055405 1006.14523331 -246.86779022 1006.82978058 C-252.26965748 1021.78323672 -257.74927221 1036.70766812 -263.25 1051.625 C-263.89062378 1053.36370865 -263.89062378 1053.36370865 -264.54418945 1055.13754272 C-266.96045276 1061.69412764 -269.38273671 1068.2484401 -271.8132019 1074.79977417 C-272.62329649 1076.98421113 -273.43226873 1079.16906456 -274.24026489 1081.35427856 C-275.45487562 1084.63722809 -276.67410428 1087.91842761 -277.89453125 1091.19921875 C-278.25746277 1092.18221954 -278.62039429 1093.16522034 -278.99432373 1094.17800903 C-288.84585975 1120.57442372 -307.1195087 1140.06765422 -332.67480469 1152.01757812 C-346.02339056 1157.65750983 -361.57843706 1160.20131623 -376 1160 C-376.28053223 1160.72711182 -376.56106445 1161.45422363 -376.85009766 1162.20336914 C-377.91872692 1164.80233905 -379.0995619 1167.25578539 -380.3984375 1169.74609375 C-380.87128174 1170.65383545 -381.34412598 1171.56157715 -381.83129883 1172.49682617 C-382.34072021 1173.46724854 -382.8501416 1174.4376709 -383.375 1175.4375 C-384.17683716 1176.9695105 -384.17683716 1176.9695105 -384.99487305 1178.5324707 C-389.01533692 1186.18732547 -393.12554312 1193.79000968 -397.28442383 1201.37036133 C-401.09906824 1208.32785402 -404.85606438 1215.31499141 -408.59408569 1222.31381226 C-409.55606366 1224.11296236 -410.52036534 1225.91084488 -411.4855957 1227.70825195 C-414.39787434 1233.13206781 -417.29820408 1238.56092534 -420.15234375 1244.015625 C-421.10119719 1245.80227739 -422.05039201 1247.58874854 -423 1249.375 C-423.40806885 1250.1705127 -423.8161377 1250.96602539 -424.23657227 1251.78564453 C-427.67395996 1258.19082761 -431.94204379 1262.20120223 -438.1875 1265.875 C-445.89352906 1268.14891022 -453.71978021 1268.10191684 -460.9609375 1264.40234375 C-466.28977609 1260.73749116 -469.87740647 1256.07373224 -472 1250 C-474.53887294 1236.20233526 -468.13770954 1222.50064731 -463.8125 1209.6875 C-462.99012917 1207.20044036 -462.16999883 1204.71263881 -461.35205078 1202.22412109 C-459.70377683 1197.21448905 -458.0465584 1192.20796472 -456.38232422 1187.20361328 C-453.24881058 1177.75831915 -450.22085513 1168.28023341 -447.21981812 1158.79214478 C-446.38746658 1156.1643578 -445.54935982 1153.53846305 -444.71020508 1150.9128418 C-444.21022951 1149.34040187 -443.71046019 1147.76789635 -443.2109375 1146.1953125 C-442.98370499 1145.48660507 -442.75647247 1144.77789764 -442.52235413 1144.04771423 C-441.38363697 1140.59131482 -441.38363697 1140.59131482 -441 1137 C-442.48994366 1135.572373 -442.48994366 1135.572373 -444.4375 1134.0625 C-459.04283993 1121.48853657 -467.33505368 1104.40497728 -472 1086 C-472.24492187 1085.06800781 -472.48984375 1084.13601563 -472.7421875 1083.17578125 C-474.21226192 1076.27851429 -474.231082 1069.27489796 -474.3125 1062.25 C-474.33920776 1060.80463867 -474.33920776 1060.80463867 -474.36645508 1059.33007812 C-474.35078693 1044.8189587 -470.54953135 1031.57130001 -465.625 1018.0625 C-465.05898174 1016.48179553 -464.49374656 1014.90081048 -463.92919922 1013.31958008 C-457.90087196 996.50125193 -451.66606067 979.75597387 -445.46582031 963.00048828 C-437.29628092 940.90523843 -429.3193828 918.74240329 -421.37548828 896.56518555 C-421.137407 895.90065809 -420.89932571 895.23613064 -420.65402985 894.55146599 C-419.53846816 891.43756152 -418.42367705 888.32338872 -417.31036377 885.2086792 C-416.917099 884.10977356 -416.52383423 883.01086792 -416.11865234 881.87866211 C-415.75503601 880.8602121 -415.39141968 879.84176208 -415.01678467 878.79244995 C-414.11965747 876.3286217 -413.17489384 873.89055264 -412.21337891 871.45141602 C-410.77889268 867.98081617 -410.77889268 867.98081617 -411 864 C-413.48235514 861.81759573 -413.48235514 861.81759573 -416.75 859.8125 C-417.9557637 859.0163435 -419.16016294 858.21811723 -420.36328125 857.41796875 C-420.97510254 857.01497559 -421.58692383 856.61198242 -422.21728516 856.19677734 C-439.37850006 844.67606035 -455.45541825 830.94392088 -470.73046875 817.05078125 C-472.83652418 815.14771912 -474.97320469 813.28846179 -477.125 811.4375 C-480.49785036 808.50488111 -483.64614251 805.40220954 -486.75 802.1875 C-488.70193871 800.28978181 -490.69951816 798.52782763 -492.765625 796.7578125 C-497.04150928 793.04163 -500.90492881 789.0297958 -504.75 784.875 C-505.44101807 784.13362793 -506.13203613 783.39225586 -506.84399414 782.62841797 C-508.2410114 781.12825871 -509.63630657 779.62649373 -511.02978516 778.12304688 C-512.80887407 776.20595181 -514.59586611 774.29672258 -516.38671875 772.390625 C-521.72430034 766.69039272 -526.85509814 760.87697437 -531.7421875 754.78125 C-533.72707792 752.33619467 -535.76517289 749.94914354 -537.82958984 747.57128906 C-545.42547347 738.7818056 -552.21849196 729.42390452 -559 720 C-559.79954102 718.89253418 -559.79954102 718.89253418 -560.61523438 717.76269531 C-567.63675669 708.01449651 -574.33647794 698.09129239 -580.76123047 687.93994141 C-581.90568054 686.14770643 -583.07451333 684.37482057 -584.25390625 682.60546875 C-591.03215939 672.17441886 -596.1272767 660.37943063 -598 648 C-598.10957031 647.31292969 -598.21914063 646.62585938 -598.33203125 645.91796875 C-600.5794573 629.287016 -598.40369328 613.08081841 -591 598 C-590.54625 597.06542969 -590.0925 596.13085938 -589.625 595.16796875 C-578.72018551 573.98062538 -559.33527231 558.25281631 -536.80395508 550.85839844 C-515.20087922 544.0104053 -491.09034658 544.71076099 -470.625 554.75 C-452.53999634 564.14366695 -441.9723698 576.9690523 -431.5625 593.96484375 C-425.97838199 603.0768949 -419.97520411 611.67028076 -413.44189453 620.12890625 C-412.08442419 621.89044581 -410.74095744 623.66160928 -409.40234375 625.4375 C-397.04754196 641.77372533 -383.31988307 656.74623484 -368.90197754 671.27325439 C-367.89938565 672.28390132 -366.89827746 673.29602272 -365.89880371 674.30975342 C-359.60726412 680.68150577 -353.11056034 686.54724936 -346 692 C-345.82395233 691.31909805 -345.64790466 690.63819611 -345.46652222 689.93666077 C-343.78160318 683.57078115 -341.81898267 677.40947571 -339.5078125 671.24609375 C-339.17008316 670.33299942 -338.83235382 669.41990509 -338.48439026 668.47914124 C-337.75281846 666.50229332 -337.01921863 664.52619496 -336.28378296 662.55078125 C-334.25064733 657.08839247 -332.23359947 651.62005971 -330.21484375 646.15234375 C-329.78913589 645.0003952 -329.36342804 643.84844666 -328.92481995 642.66159058 C-324.56006794 630.83729136 -320.27574442 618.98429186 -315.99707031 607.12863159 C-308.61770717 586.68147427 -301.16479438 566.26353092 -293.625 545.875 C-285.9898408 525.22767968 -278.48869539 504.53563933 -271.0625 483.8125 C-264.8002721 466.33746541 -258.52580753 448.86896886 -252.07354736 431.46295166 C-246.61463102 416.73335008 -241.27378328 401.96191591 -235.9375 387.1875 C-229.21113693 368.56675757 -222.43150094 349.96733192 -215.57281494 331.39480591 C-211.70930079 320.9320502 -207.85360266 310.46640974 -204 300 C-203.58993713 298.88663269 -203.17987427 297.77326538 -202.75738525 296.62615967 C-200.38028159 290.16873643 -198.0118677 283.70823746 -195.65539551 277.24325562 C-194.94454533 275.29635743 -194.23121732 273.35036156 -193.51501465 271.40542603 C-189.60249727 260.77483176 -186.01352023 250.14923524 -183.07752991 239.20306396 C-173.31795794 203.27450403 -146.75196953 172.69734673 -115.2265625 153.828125 C-101.41025641 146 -101.41025641 146 -98 146 C-98.00888245 144.77019409 -98.01776489 143.54038818 -98.0269165 142.27331543 C-98.10837865 130.62316469 -98.16814492 118.97307255 -98.20724869 107.3227005 C-98.22802887 101.33464081 -98.25616994 95.34681301 -98.30175781 89.35888672 C-98.34555896 83.56870783 -98.36920886 77.7787505 -98.37950897 71.98841858 C-98.38683928 69.79106667 -98.40115162 67.59372542 -98.42292023 65.39646912 C-98.62318302 44.3240984 -96.21742493 26.5045759 -82 10 C-81.48953125 9.39414062 -80.9790625 8.78828125 -80.453125 8.1640625 C-60.53775183 -13.62453884 -23.94225916 -16.48543341 0 0 Z M-42 439 C-42.53802246 440.64524658 -43.07604492 442.29049316 -43.63037109 443.9855957 C-48.57509748 459.01582776 -53.80657974 473.90797427 -59.3371582 488.73364258 C-61.63456369 494.89504456 -63.91564548 501.06248706 -66.1953125 507.23046875 C-66.43264854 507.87230984 -66.66998459 508.51415092 -66.91451263 509.17544174 C-72.2991221 523.7441505 -77.54545885 538.36171795 -82.77894211 552.98525238 C-90.86981286 575.59240052 -99.0706012 598.15421812 -107.3984375 620.67529297 C-112.66778029 634.9262929 -117.89674527 649.1886612 -123 663.5 C-129.12077115 680.66276533 -135.41677154 697.75935124 -141.72836304 714.85275269 C-150.22863277 737.87427642 -158.64154651 760.92664281 -167 784 C-162.31183736 787.12544176 -157.02871915 787.72136244 -151.5625 788.875 C-150.3156543 789.13893555 -149.06880859 789.40287109 -147.78417969 789.67480469 C-139.14302158 791.45597235 -130.48263329 792.98382696 -121.75 794.25 C-120.72592041 794.40065918 -119.70184082 794.55131836 -118.64672852 794.70654297 C-99.16270965 797.38102653 -79.652998 798.38363802 -60 798.3125 C-58.94138763 798.31067719 -57.88277527 798.30885437 -56.79208374 798.30697632 C-6.59033659 798.16244651 45.43911364 790.4671842 92 771 C90.68195808 764.44933166 88.84443363 758.37515821 86.5 752.125 C86.15274368 751.18473969 85.80548737 750.24447937 85.44770813 749.27572632 C84.30376279 746.18182933 83.15180391 743.09097898 82 740 C81.18451592 737.7979198 80.36966761 735.59560408 79.55541992 733.39306641 C77.86807227 728.83044471 76.17801845 724.26883995 74.48583984 719.70800781 C71.10316887 710.58629029 67.74738326 701.45473315 64.39453125 692.32202148 C63.2987392 689.33752107 62.20214859 686.35331492 61.10546875 683.36914062 C54.63046949 665.74432052 48.1931553 648.10579044 41.75810623 630.46635818 C34.74740633 611.24899795 27.7176055 592.03884313 20.65673828 572.83984375 C15.31944564 558.32661451 10.0012742 543.80652498 4.69793701 529.28085327 C1.53740449 520.62493619 -1.62569048 511.96995495 -4.78869629 503.31494141 C-5.60810613 501.07248512 -6.42735626 498.82997047 -7.24645996 496.58740234 C-9.72660148 489.79721924 -12.20939878 483.00801872 -14.69604492 476.22021484 C-15.47092315 474.10370132 -16.24487676 471.98684902 -17.01782227 469.86962891 C-20.80963191 459.48492814 -24.62536696 449.15601082 -29 439 C-33.29 439 -37.58 439 -42 439 Z " fill="#3478EA" transform="translate(674,12)"/>
<path d="M0 0 C0.33 0 0.66 0 1 0 C0.89606934 0.88655273 0.89606934 0.88655273 0.79003906 1.79101562 C-0.14338054 10.68673696 -0.24321044 19.56586457 -0.25 28.5 C-0.25067474 29.2995813 -0.25134949 30.0991626 -0.25204468 30.92297363 C-0.23610263 42.82259543 0.05718138 54.40385911 3 66 C3.17160645 66.67788574 3.34321289 67.35577148 3.52001953 68.05419922 C10.46771514 94.33623272 24.23471035 117.52658622 43 137 C44.13115234 138.24330078 44.13115234 138.24330078 45.28515625 139.51171875 C71.9692536 167.93508831 108.65842788 178.13896694 146 183 C145.42029852 189.95767252 142.98832901 196.15492637 140.609375 202.6796875 C140.15259678 203.94695907 139.69637294 205.21443057 139.24066162 206.48208618 C138.00926957 209.90170389 136.76925163 213.31813456 135.5274353 216.73397827 C134.48068007 219.61669492 133.43907541 222.50126147 132.39741516 225.3858223 C125.09179106 245.61375434 117.67784445 265.80132607 110.21551514 285.97195435 C103.15931298 305.0469642 96.23636899 324.16682329 89.375 343.3125 C75.45317122 382.1528107 61.26496328 420.89293879 46.98342896 459.60238647 C40.20051551 477.98764774 33.4693348 496.39103247 26.79614258 514.81640625 C26.48398804 515.67756042 26.1718335 516.5387146 25.85021973 517.42596436 C25.27603797 519.01035916 24.70257308 520.59501405 24.13000488 522.17999268 C23.13160348 524.93516447 22.12733233 527.68318236 21.03442383 530.40246582 C19.99764408 533.00591592 19.0327764 535.62501151 18.08666992 538.26269531 C17.71333023 539.30182068 17.33999054 540.34094604 16.95533752 541.41156006 C16.55113083 542.53902649 16.14692413 543.66649292 15.73046875 544.828125 C15.07316402 546.65694124 14.41585442 548.48575573 13.75835705 550.31450272 C13.05461499 552.27201106 12.35117606 554.22962815 11.64776611 556.18725586 C3.5709626 578.66150034 -4.58860016 601.10205406 -12.875 623.5 C-19.01812547 640.11079302 -25.09478059 656.74056798 -31 673.4375 C-44.93262543 712.8264166 -59.22881859 752.08443115 -73.72802734 791.26806641 C-77.43430345 801.28838707 -81.13332034 811.30902368 -84.703125 821.37890625 C-85.24599293 822.90292034 -85.78887947 824.42692779 -86.33178711 825.95092773 C-87.26776366 828.5804297 -88.1885043 831.21350855 -89.09985352 833.85180664 C-98.81626434 861.20291594 -116.32517011 881.90934011 -142.3984375 894.953125 C-156.25172157 901.43106564 -172.791912 904.21229564 -188 904 C-188.28053223 904.72711182 -188.56106445 905.45422363 -188.85009766 906.20336914 C-189.91872692 908.80233905 -191.0995619 911.25578539 -192.3984375 913.74609375 C-192.87128174 914.65383545 -193.34412598 915.56157715 -193.83129883 916.49682617 C-194.34072021 917.46724854 -194.8501416 918.4376709 -195.375 919.4375 C-195.90955811 920.45884033 -196.44411621 921.48018066 -196.99487305 922.5324707 C-201.01533692 930.18732547 -205.12554312 937.79000968 -209.28442383 945.37036133 C-213.09906824 952.32785402 -216.85606438 959.31499141 -220.59408569 966.31381226 C-221.55606366 968.11296236 -222.52036534 969.91084488 -223.4855957 971.70825195 C-226.39787434 977.13206781 -229.29820408 982.56092534 -232.15234375 988.015625 C-233.10119719 989.80227739 -234.05039201 991.58874854 -235 993.375 C-235.40806885 994.1705127 -235.8161377 994.96602539 -236.23657227 995.78564453 C-239.67395996 1002.19082761 -243.94204379 1006.20120223 -250.1875 1009.875 C-257.89352906 1012.14891022 -265.71978021 1012.10191684 -272.9609375 1008.40234375 C-278.28977609 1004.73749116 -281.87740647 1000.07373224 -284 994 C-286.53887294 980.20233526 -280.13770954 966.50064731 -275.8125 953.6875 C-274.99012917 951.20044036 -274.16999883 948.71263881 -273.35205078 946.22412109 C-271.70377683 941.21448905 -270.0465584 936.20796472 -268.38232422 931.20361328 C-265.24881058 921.75831915 -262.22085513 912.28023341 -259.21981812 902.79214478 C-258.38746658 900.1643578 -257.54935982 897.53846305 -256.71020508 894.9128418 C-256.21022951 893.34040187 -255.71046019 891.76789635 -255.2109375 890.1953125 C-254.98370499 889.48660507 -254.75647247 888.77789764 -254.52235413 888.04771423 C-253.38363697 884.59131482 -253.38363697 884.59131482 -253 881 C-254.48994366 879.572373 -254.48994366 879.572373 -256.4375 878.0625 C-271.04283993 865.48853657 -279.33505368 848.40497728 -284 830 C-284.24492187 829.06800781 -284.48984375 828.13601563 -284.7421875 827.17578125 C-286.21226192 820.27851429 -286.231082 813.27489796 -286.3125 806.25 C-286.33920776 804.80463867 -286.33920776 804.80463867 -286.36645508 803.33007812 C-286.35078693 788.8189587 -282.54953135 775.57130001 -277.625 762.0625 C-277.05898174 760.48179553 -276.49374656 758.90081048 -275.92919922 757.31958008 C-269.90087196 740.50125193 -263.66606067 723.75597387 -257.46582031 707.00048828 C-249.29628092 684.90523843 -241.3193828 662.74240329 -233.37548828 640.56518555 C-233.137407 639.90065809 -232.89932571 639.23613064 -232.65402985 638.55146599 C-231.53846816 635.43756152 -230.42367705 632.32338872 -229.31036377 629.2086792 C-228.917099 628.10977356 -228.52383423 627.01086792 -228.11865234 625.87866211 C-227.75503601 624.8602121 -227.39141968 623.84176208 -227.01678467 622.79244995 C-226.11965747 620.3286217 -225.17489384 617.89055264 -224.21337891 615.45141602 C-222.77889268 611.98081617 -222.77889268 611.98081617 -223 608 C-225.48235514 605.81759573 -225.48235514 605.81759573 -228.75 603.8125 C-229.9557637 603.0163435 -231.16016294 602.21811723 -232.36328125 601.41796875 C-232.97510254 601.01497559 -233.58692383 600.61198242 -234.21728516 600.19677734 C-251.37850006 588.67606035 -267.45541825 574.94392088 -282.73046875 561.05078125 C-284.83652418 559.14771912 -286.97320469 557.28846179 -289.125 555.4375 C-292.49785036 552.50488111 -295.64614251 549.40220954 -298.75 546.1875 C-300.70193871 544.28978181 -302.69951816 542.52782763 -304.765625 540.7578125 C-309.04150928 537.04163 -312.90492881 533.0297958 -316.75 528.875 C-317.44101807 528.13362793 -318.13203613 527.39225586 -318.84399414 526.62841797 C-320.2410114 525.12825871 -321.63630657 523.62649373 -323.02978516 522.12304688 C-324.80887407 520.20595181 -326.59586611 518.29672258 -328.38671875 516.390625 C-333.72430034 510.69039272 -338.85509814 504.87697437 -343.7421875 498.78125 C-345.72707792 496.33619467 -347.76517289 493.94914354 -349.82958984 491.57128906 C-357.42547347 482.7818056 -364.21849196 473.42390452 -371 464 C-371.53302734 463.26168945 -372.06605469 462.52337891 -372.61523438 461.76269531 C-379.63675669 452.01449651 -386.33647794 442.09129239 -392.76123047 431.93994141 C-393.90568054 430.14770643 -395.07451333 428.37482057 -396.25390625 426.60546875 C-403.03215939 416.17441886 -408.1272767 404.37943063 -410 392 C-410.10957031 391.31292969 -410.21914063 390.62585938 -410.33203125 389.91796875 C-412.5794573 373.287016 -410.40369328 357.08081841 -403 342 C-402.54625 341.06542969 -402.0925 340.13085938 -401.625 339.16796875 C-390.72018551 317.98062538 -371.33527231 302.25281631 -348.80395508 294.85839844 C-327.20087922 288.0104053 -303.09034658 288.71076099 -282.625 298.75 C-264.53999634 308.14366695 -253.9723698 320.9690523 -243.5625 337.96484375 C-237.97838199 347.0768949 -231.97520411 355.67028076 -225.44189453 364.12890625 C-224.08442419 365.89044581 -222.74095744 367.66160928 -221.40234375 369.4375 C-209.04754196 385.77372533 -195.31988307 400.74623484 -180.90197754 415.27325439 C-179.89938565 416.28390132 -178.89827746 417.29602272 -177.89880371 418.30975342 C-171.60726412 424.68150577 -165.11056034 430.54724936 -158 436 C-157.82395233 435.31909805 -157.64790466 434.63819611 -157.46652222 433.93666077 C-155.78160318 427.57078115 -153.81898267 421.40947571 -151.5078125 415.24609375 C-151.17008316 414.33299942 -150.83235382 413.41990509 -150.48439026 412.47914124 C-149.75281846 410.50229332 -149.01921863 408.52619496 -148.28378296 406.55078125 C-146.25064733 401.08839247 -144.23359947 395.62005971 -142.21484375 390.15234375 C-141.78913589 389.0003952 -141.36342804 387.84844666 -140.92481995 386.66159058 C-136.56006794 374.83729136 -132.27574442 362.98429186 -127.99707031 351.12863159 C-120.61770717 330.68147427 -113.16479438 310.26353092 -105.625 289.875 C-97.9898408 269.22767968 -90.48869539 248.53563933 -83.0625 227.8125 C-76.8002721 210.33746541 -70.52580753 192.86896886 -64.07354736 175.46295166 C-58.61463074 160.73334932 -53.27386386 145.96188736 -47.9375 131.1875 C-40.32633394 110.11865723 -32.6336352 89.08161086 -24.87365723 68.0670166 C-16.5057636 45.4057034 -8.22774556 22.71254037 0 0 Z " fill="#498AF5" transform="translate(486,268)"/>
<path d="M0 0 C3.54099526 2.81089315 6.79894702 5.80992833 10 9 C10.95712891 9.92232422 10.95712891 9.92232422 11.93359375 10.86328125 C27.08906315 26.62631958 27.43921133 46.4374114 27.29296875 66.921875 C27.28736514 69.23642704 27.28309866 71.55098266 27.28010559 73.86553955 C27.26871706 79.92193636 27.23930196 85.97811321 27.20599365 92.03442383 C27.17516295 98.22864813 27.16157259 104.42290839 27.14648438 110.6171875 C27.11442611 122.74488767 27.06330301 134.87242546 27 147 C27.91894043 147.29189209 28.83788086 147.58378418 29.78466797 147.88452148 C33.52395436 149.18177278 36.76496533 151.01014267 40.125 153.0625 C40.77879639 153.45953125 41.43259277 153.8565625 42.10620117 154.265625 C52.23145794 160.51246873 61.35587801 167.8299105 70 176 C70.79921875 176.73476562 71.5984375 177.46953125 72.421875 178.2265625 C94.32547721 199.08381429 108.11050918 227.55254591 114 257 C114.22429687 258.10085938 114.44859375 259.20171875 114.6796875 260.3359375 C119.33284633 288.19114857 117.08391813 322.95199389 103.03515625 348.11328125 C101.65343616 350.63166164 100.7966907 353.24779578 100 356 C99.34 356 98.68 356 98 356 C97.94328125 356.65226562 97.8865625 357.30453125 97.828125 357.9765625 C96.63344884 362.33825753 94.27128834 365.65435979 91.75 369.375 C91.21568359 370.16720947 90.68136719 370.95941895 90.13085938 371.77563477 C76.40666938 391.72883358 58.9063219 408.57783756 37.31640625 419.765625 C34.81114383 421.042775 34.81114383 421.042775 31.9375 423.125 C27.82885703 425.74753806 23.57587786 427.34996226 19 429 C18.02377686 429.35263916 18.02377686 429.35263916 17.02783203 429.71240234 C-22.79146586 443.94456676 -65.63129421 441.97402168 -104 424 C-118.2277049 417.01843315 -130.50096366 407.9021398 -142 397 C-143.43666016 395.66001953 -143.43666016 395.66001953 -144.90234375 394.29296875 C-160.70948155 379.25060995 -171.32891311 360.87031676 -180 341 C-180.39058594 340.113125 -180.78117187 339.22625 -181.18359375 338.3125 C-186.47336216 325.13953587 -189.11300566 309.24369234 -189.203125 295.109375 C-189.21378242 294.00255119 -189.21378242 294.00255119 -189.22465515 292.87336731 C-189.44596969 263.11896558 -185.81070511 237.37661115 -171 211 C-170.06027344 209.32550781 -170.06027344 209.32550781 -169.1015625 207.6171875 C-153.09319417 180.50097176 -128.93862227 158.62776244 -100 146 C-99.34 146 -98.68 146 -98 146 C-98.00888245 144.77019409 -98.01776489 143.54038818 -98.0269165 142.27331543 C-98.10837865 130.62316469 -98.16814492 118.97307255 -98.20724869 107.3227005 C-98.22802887 101.33464081 -98.25616994 95.34681301 -98.30175781 89.35888672 C-98.34555896 83.56870783 -98.36920886 77.7787505 -98.37950897 71.98841858 C-98.38683928 69.79106667 -98.40115162 67.59372542 -98.42292023 65.39646912 C-98.62318302 44.3240984 -96.21742493 26.5045759 -82 10 C-81.48953125 9.39414062 -80.9790625 8.78828125 -80.453125 8.1640625 C-60.53775183 -13.62453884 -23.94225916 -16.48543341 0 0 Z " fill="#202124" transform="translate(674,12)"/>
<path d="M0 0 C4.25906028 2.46213424 6.8778543 6.30322561 9.30078125 10.48828125 C10.80303014 16.79772658 10.58434217 22.31625018 7.37890625 28.02734375 C4.99211824 31.45353944 2.18338626 34.44955508 -0.6640625 37.49609375 C-2.99334583 40.02546138 -5.16743598 42.62366967 -7.32421875 45.30078125 C-11.98742831 51.05883131 -16.83439996 56.64332189 -21.69921875 62.23046875 C-25.11485472 66.153673 -28.50395228 70.09922654 -31.88671875 74.05078125 C-32.40854736 74.66026611 -32.93037598 75.26975098 -33.46801758 75.89770508 C-34.67043342 77.30259869 -35.87238301 78.70789135 -37.07421875 80.11328125 C-35.6668846 83.33908087 -33.72638862 85.99302587 -31.59692383 88.78076172 C-2.27871495 127.21962213 11.97305586 172.93864916 10.92578125 221.11328125 C11.49239471 221.15805099 12.05900818 221.20282074 12.64279175 221.24894714 C19.95266304 221.89619385 27.09883847 223.12831591 34.30859375 224.4765625 C36.18996536 224.82644478 36.18996536 224.82644478 38.10934448 225.18339539 C40.74704057 225.67612259 43.38425673 226.17092891 46.02099609 226.66870117 C49.37866396 227.30172751 52.7389387 227.91956667 56.10006905 228.53390217 C59.33824067 229.12915916 62.57317822 229.74153162 65.80859375 230.3515625 C67.00461212 230.56839188 68.20063049 230.78522125 69.43289185 231.00862122 C76.4811139 232.36225806 83.43025834 233.72908072 88.765625 238.89453125 C89.12785156 239.46171875 89.49007813 240.02890625 89.86328125 240.61328125 C90.24355469 241.18046875 90.62382813 241.74765625 91.015625 242.33203125 C93.87317281 247.92448534 93.61549396 253.97154178 91.73828125 259.80078125 C88.6909041 265.37012569 84.94693842 268.99472595 78.92578125 271.11328125 C70.5197193 271.86026954 62.51453384 270.35406737 54.3046875 268.70703125 C52.37624657 268.33403425 50.44780498 267.96104063 48.5193243 267.58824921 C45.8506549 267.06975388 43.18386713 266.54191843 40.51702881 266.01409912 C35.82060451 265.0862307 31.12163575 264.17138033 26.42210388 263.25939941 C23.92713175 262.77425066 21.43300344 262.28473753 18.93983459 261.79040527 C17.81443771 261.570177 16.68904083 261.34994873 15.52954102 261.12304688 C14.04708641 260.82992615 14.04708641 260.82992615 12.53468323 260.53088379 C9.70784669 260.0079104 9.70784669 260.0079104 5.92578125 260.11328125 C5.72984375 260.94085937 5.53390625 261.7684375 5.33203125 262.62109375 C-7.86262575 315.28597471 -40.69738238 360.69586255 -87.07421875 389.11328125 C-98.98466651 396.11328125 -98.98466651 396.11328125 -102.07421875 396.11328125 C-102.44314995 395.10258575 -102.44314995 395.10258575 -102.8195343 394.07147217 C-108.67480454 378.03093739 -114.53060718 361.99059709 -120.38716125 345.95053101 C-120.92347221 344.48166915 -121.45978304 343.01280725 -121.99609375 341.54394531 C-122.3890981 340.46757655 -122.3890981 340.46757655 -122.79004192 339.36946297 C-124.4396196 334.85151194 -126.08901006 330.33349261 -127.73828125 325.81542969 C-139.14534869 294.56727482 -150.59421744 263.33471071 -162.07421875 232.11328125 C-165.05400625 224.0093427 -168.03338228 215.9052532 -171.01171875 207.80078125 C-171.38144806 206.79471832 -171.75117737 205.7886554 -172.1321106 204.75210571 C-178.36670334 187.78472778 -184.57522266 170.80789781 -190.77371216 153.82730103 C-195.01552156 142.20725844 -199.26218436 130.58909406 -203.53515625 118.98046875 C-203.90009689 117.98899841 -204.26503754 116.99752808 -204.64103699 115.97601318 C-205.18791924 114.4903183 -205.18791924 114.4903183 -205.74584961 112.97460938 C-213.15184369 92.85498189 -220.50450482 72.71648626 -227.80673981 52.55899811 C-228.50535827 50.63083595 -229.20438452 48.70282206 -229.90350342 46.77484131 C-231.21044313 43.16938691 -232.51568886 39.56332427 -233.8203125 35.95703125 C-234.40033775 34.3571788 -234.40033775 34.3571788 -234.99208069 32.7250061 C-237.10371829 26.87994163 -239.13595593 21.01817687 -241.07421875 15.11328125 C-239.07650863 14.64506794 -237.07582757 14.18953681 -235.07421875 13.73828125 C-233.96046875 13.48304688 -232.84671875 13.2278125 -231.69921875 12.96484375 C-219.45842857 10.54314129 -207.21434011 9.70275974 -194.76171875 9.73828125 C-193.66845276 9.73909698 -193.66845276 9.73909698 -192.55310059 9.7399292 C-149.19701794 9.88698272 -107.90449788 23.60657607 -72.76318359 48.91308594 C-70.23904331 50.70676527 -67.66027263 52.41036675 -65.07421875 54.11328125 C-64.82800781 53.54738281 -64.58179688 52.98148438 -64.328125 52.3984375 C-62.85885651 49.72079867 -61.0966944 47.78284513 -59.01171875 45.55078125 C-55.83636758 42.08767966 -52.77593691 38.58132869 -49.82421875 34.92578125 C-45.62722606 29.73823959 -41.2821452 24.69552151 -36.87866211 19.68334961 C-34.36416397 16.80958486 -31.89547946 13.93477519 -29.59375 10.88671875 C-21.87440036 0.74909497 -12.74115983 -5.22016451 0 0 Z " fill="#55B25A" transform="translate(1111.07421875,480.88671875)"/>
<path d="M0 0 C0.24817474 0.68045883 0.49634949 1.36091766 0.75204468 2.06199646 C15.95943769 43.76428635 15.95943769 43.76428635 31.23471069 85.44174194 C32.31120506 88.37147576 33.3867483 91.30155742 34.4621582 94.23168945 C37.88778984 103.56101433 41.32552674 112.88561463 44.78852844 122.20114136 C46.47704579 126.74550364 48.16043717 131.2917567 49.84335327 135.8381958 C50.64759856 138.00643096 51.45436827 140.17373166 52.26382446 142.34002686 C53.38138198 145.33116681 54.49038514 148.32535235 55.59765625 151.3203125 C55.92900574 152.20023865 56.26035522 153.08016479 56.60174561 153.98675537 C58.33020365 158.69016998 59.5045753 163.00871192 60 168 C44.66343035 176.86828836 28.98436408 183.00056382 12 188 C11.35530762 188.20197998 10.71061523 188.40395996 10.04638672 188.61206055 C7.22183812 189.1475184 4.57087128 188.99782497 1.69921875 188.88671875 C-13.68486554 188.46819049 -27.71901906 189.23590344 -42.84790039 192.50561523 C-53.43193705 194.77518871 -64.01263868 196.38626282 -74.75 197.75 C-75.5154715 197.85041595 -76.28094299 197.95083191 -77.0696106 198.05429077 C-101.75402083 201.27847603 -126.42391067 202.38379809 -151.29868698 202.31805801 C-153.47509587 202.3124023 -155.65149691 202.30959146 -157.82791138 202.30697632 C-179.67517739 202.26884648 -201.30409515 201.73290149 -223 199 C-224.42867587 198.82637133 -225.85738774 198.65303871 -227.28613281 198.47998047 C-254.70309986 195.11257665 -281.85636457 190.00558658 -308.625 183.1875 C-309.7696875 182.89762207 -310.914375 182.60774414 -312.09375 182.30908203 C-313.64449219 181.89891846 -313.64449219 181.89891846 -315.2265625 181.48046875 C-316.12971191 181.24223389 -317.03286133 181.00399902 -317.96337891 180.75854492 C-320 180 -320 180 -321 178 C-320.38839722 175.71336365 -320.38839722 175.71336365 -319.33544922 172.80249023 C-318.94187729 171.70312134 -318.54830536 170.60375244 -318.14280701 169.47106934 C-317.70122757 168.26245239 -317.25964813 167.05383545 -316.8046875 165.80859375 C-316.34456095 164.53305978 -315.8850666 163.25729761 -315.42616272 161.98132324 C-314.17887215 158.51970698 -312.92186471 155.06169106 -311.66294479 151.60429001 C-310.60997259 148.70869419 -309.56270976 145.8110482 -308.51548672 142.91336918 C-300.5477063 120.8686204 -292.4661821 98.86548679 -284.32617188 76.88378906 C-280.3902246 66.24895761 -276.47921742 55.60771533 -272.68359375 44.921875 C-272.35312546 43.99278824 -272.02265717 43.06370148 -271.68217468 42.10646057 C-270.16835953 37.84591009 -268.66296274 33.58268057 -267.17163086 29.31420898 C-266.65366141 27.84873253 -266.13552495 26.38331508 -265.6171875 24.91796875 C-265.28121803 23.94117157 -265.28121803 23.94117157 -264.9384613 22.94464111 C-263.71839373 19.51663598 -262.36608562 16.77541757 -260 14 C-259.12323608 14.18792114 -259.12323608 14.18792114 -258.22875977 14.37963867 C-245.7064428 17.03639889 -233.15173562 19.4130089 -220.50143433 21.36831665 C-218.52630507 21.67376647 -216.55230528 21.98649305 -214.57836914 22.29956055 C-194.46411327 25.33189211 -174.32553988 26.38607242 -154 26.3125 C-152.94138763 26.31067719 -151.88277527 26.30885437 -150.79208374 26.30697632 C-100.77810713 26.1629871 -52.03076451 17.1421579 -4.84863281 0.52441406 C-3 0 -3 0 0 0 Z " fill="#2B71E5" transform="translate(768,783)"/>
<path d="M0 0 C17.76225605 13.70840782 32.31061423 33.55119711 35.53564453 56.26147461 C38.960247 84.49453447 32.49918301 108.49921315 15.1328125 130.9921875 C0.43891403 148.26962856 -20.4054578 158.32134641 -42.75 161.25 C-68.68889452 162.86890126 -90.60498553 157.02245599 -110.75 140.25 C-112.23306641 139.074375 -112.23306641 139.074375 -113.74609375 137.875 C-129.09582231 124.46145306 -140.01260004 102.46899206 -141.75 82.25 C-142.93378851 56.23307663 -137.40756915 33.16974883 -119.75 13.25 C-88.02883453 -21.38327246 -38.63161573 -26.46981078 0 0 Z " fill="#FEFEFE" transform="translate(689.75,225.75)"/>
<path d="M0 0 C3.54099526 2.81089315 6.79894702 5.80992833 10 9 C10.63808594 9.61488281 11.27617188 10.22976562 11.93359375 10.86328125 C27.08906315 26.62631958 27.43921133 46.4374114 27.29296875 66.921875 C27.28736514 69.23642704 27.28309866 71.55098266 27.28010559 73.86553955 C27.26871706 79.92193636 27.23930196 85.97811321 27.20599365 92.03442383 C27.17516295 98.22864813 27.16157259 104.42290839 27.14648438 110.6171875 C27.11442611 122.74488767 27.06330301 134.87242546 27 147 C23.77070991 145.93569236 20.57807311 144.83983253 17.3984375 143.6328125 C0.42145897 137.2004584 -16.26161717 134.30461238 -34.40942383 134.47851562 C-37.06619113 134.50002989 -39.72026459 134.47852215 -42.37695312 134.453125 C-58.51184764 134.42037702 -72.85866755 137.46648125 -88.09399414 142.65039062 C-89.53207806 143.13490692 -89.53207806 143.13490692 -90.99921417 143.62921143 C-93.33389993 144.41630988 -95.66744505 145.20661401 -98 146 C-98.09311696 133.10762941 -98.16397533 120.21534024 -98.20724869 107.3227005 C-98.22802887 101.33464081 -98.25616994 95.34681301 -98.30175781 89.35888672 C-98.34555896 83.56870783 -98.36920886 77.7787505 -98.37950897 71.98841858 C-98.38683928 69.79106667 -98.40115162 67.59372542 -98.42292023 65.39646912 C-98.62318302 44.3240984 -96.21742493 26.5045759 -82 10 C-81.48953125 9.39414062 -80.9790625 8.78828125 -80.453125 8.1640625 C-60.53775183 -13.62453884 -23.94225916 -16.48543341 0 0 Z " fill="#3378E9" transform="translate(674,12)"/>
<path d="M0 0 C3.450085 0.76543705 5.43299894 1.90050094 8.25 4.0625 C25.01822468 15.98385098 43.73303817 20.97027438 64 23 C63.31813676 26.34856572 62.05966477 29.06274024 60.48046875 32.0859375 C59.9592041 33.08729736 59.43793945 34.08865723 58.90087891 35.12036133 C58.33546387 36.19439209 57.77004883 37.26842285 57.1875 38.375 C56.60145996 39.49479248 56.01541992 40.61458496 55.41162109 41.76831055 C51.24008329 49.71219862 46.9831396 57.60667114 42.66503906 65.47167969 C38.8657039 72.39375608 35.12659876 79.34674027 31.40692139 86.3117981 C30.44455767 88.11179936 29.47983345 89.91051259 28.51416016 91.70874023 C25.60194873 97.1323859 22.70171165 102.5610864 19.84765625 108.015625 C18.89880281 109.80227739 17.94960799 111.58874854 17 113.375 C16.59193115 114.1705127 16.1838623 114.96602539 15.76342773 115.78564453 C12.32604004 122.19082761 8.05795621 126.20120223 1.8125 129.875 C-5.89352906 132.14891022 -13.71978021 132.10191684 -20.9609375 128.40234375 C-26.28926414 124.73784324 -29.87852202 120.07373104 -32 114 C-34.51267226 100.24790239 -28.18726475 86.64716477 -23.875 73.875 C-23.05527255 71.39720514 -22.23774933 68.91868003 -21.42236328 66.43945312 C-19.76619729 61.40841906 -18.10103973 56.38050022 -16.4296875 51.35449219 C-13.12810872 41.39710588 -9.95434666 31.39968762 -6.79156494 21.39752197 C-5.60586888 17.64920011 -4.41502822 13.90252206 -3.22412109 10.15585327 C-2.14830829 6.77091939 -1.07409714 3.38547863 0 0 Z " fill="#246BE0" transform="translate(234,1148)"/>
<path d="M0 0 C7.61803872 22.28055726 14.69559907 44.73035821 21.75341797 67.19311523 C22.13518188 68.40727615 22.5169458 69.62143707 22.91027832 70.87239075 C23.62722734 73.15346442 24.34320537 75.43484362 25.0579834 77.71659851 C27.01518819 83.946403 29.04384973 90.14370625 31.17324829 96.31698608 C33.62389209 104.26993175 33.61076364 111.40622904 30 119 C26.30055753 124.66141592 21.64227092 129.2294609 15 131 C7.39322249 132.02398928 1.17807536 131.31180123 -5.68359375 127.875 C-12.85458017 122.0704916 -16.74486085 113.26136277 -20.9375 105.25 C-21.59228932 104.01149621 -22.24782257 102.77338548 -22.90405273 101.53564453 C-24.26411721 98.96896066 -25.62100073 96.40063422 -26.97558594 93.83105469 C-30.14228389 87.83021705 -33.35465075 81.85391358 -36.5625 75.875 C-37.17657715 74.72805664 -37.7906543 73.58111328 -38.42333984 72.39941406 C-41.552914 66.55480067 -44.69102714 60.71496107 -47.84375 54.8828125 C-48.46822021 53.72668457 -49.09269043 52.57055664 -49.73608398 51.37939453 C-50.90843293 49.21021206 -52.0822927 47.04184505 -53.25805664 44.87451172 C-56.98113394 37.98465968 -60.53699568 31.02408429 -64 24 C-62.82566406 23.84144531 -61.65132812 23.68289063 -60.44140625 23.51953125 C-39.60687028 20.56684529 -19.86439258 15.28022922 -3.56640625 1.21484375 C-2 0 -2 0 0 0 Z " fill="#1961D8" transform="translate(1043,1148)"/>
<path d="M0 0 C4.22909203 2.35654847 7.0691761 5.25292203 8.953125 9.73046875 C11.07425062 17.92512798 10.36886457 25.61865953 6.125 32.94140625 C1.54586983 39.5260795 -3.62493143 43.89505198 -11.41796875 46.16015625 C-17.05010079 47.0953027 -22.4953604 45.99566299 -27.41796875 43.16015625 C-31.29146568 39.65929953 -34.07500951 35.53448943 -34.82421875 30.34765625 C-35.07869077 21.69560768 -33.50085476 15.25545019 -28.41796875 8.16015625 C-20.68847773 0.40354421 -10.87430155 -3.77701912 0 0 Z " fill="#010101" transform="translate(1050.41796875,735.83984375)"/>
<path d="M0 0 C4.92607721 3.78598074 7.98385935 8.86228816 9.8515625 14.75 C10.36169657 19.49579275 9.37020382 23.42403789 6.9140625 27.5 C2.50522617 32.85804755 -2.97728852 35.33058997 -9.78125 36.23046875 C-19.14162508 36.58030095 -26.26452614 35.26944036 -33.2421875 28.8125 C-37.42961125 24.28184479 -39.88419373 20.60383269 -40.4609375 14.375 C-39.95920596 8.55491419 -38.24856976 4.46459148 -33.9609375 0.5 C-23.44357027 -7.76364568 -11.24758505 -6.54404948 0 0 Z " fill="#010201" transform="translate(987.1484375,554.25)"/>
<path d="M0 0 C0 0.66 0 1.32 0 2 C0.99 2.495 0.99 2.495 2 3 C-13.33656965 11.86828836 -29.01563592 18.00056382 -46 23 C-46.65073486 23.1961792 -47.30146973 23.3923584 -47.97192383 23.59448242 C-52.90731466 24.58132294 -58.11205627 24.18480197 -63.125 24.1875 C-64.33027344 24.19974609 -65.53554688 24.21199219 -66.77734375 24.22460938 C-67.92589844 24.22654297 -69.07445312 24.22847656 -70.2578125 24.23046875 C-71.3111377 24.23457764 -72.36446289 24.23868652 -73.44970703 24.24291992 C-76 24 -76 24 -78 22 C-76.35 22.33 -74.7 22.66 -73 23 C-73 22.34 -73 21.68 -73 21 C-72.40574219 20.85900879 -71.81148437 20.71801758 -71.19921875 20.57275391 C-68.4660291 19.9239933 -65.73301374 19.27450126 -63 18.625 C-62.06542969 18.40328125 -61.13085938 18.1815625 -60.16796875 17.953125 C-55.93667999 16.94708432 -51.7113767 15.93033918 -47.5 14.84375 C-44.48403542 14.11668711 -42.07534435 13.80779098 -39 14 C-38.67 13.34 -38.34 12.68 -38 12 C-36.14453125 11.47265625 -36.14453125 11.47265625 -33.8125 11.0625 C-29.78173112 10.24999856 -26.65971736 8.90610279 -23 7 C-18.57736935 5.32701986 -14.09410471 3.98647695 -9.5 2.875 C-6.1965088 2.36800738 -6.1965088 2.36800738 -5 1 C-3 0 -3 0 0 0 Z " fill="#003EC5" transform="translate(826,948)"/>
<path d="M0 0 C0.74658203 2.12890625 0.74658203 2.12890625 1 4 C-4.84448195 2.45396469 -10.62521325 0.80740629 -16.375 -1.0625 C-22.83696873 -3.08719848 -29.29050328 -4.16543085 -36 -5 C-36 -5.66 -36 -6.32 -36 -7 C-37.794375 -6.938125 -37.794375 -6.938125 -39.625 -6.875 C-42.3740605 -6.78020481 -44.11950547 -7.04358849 -46.73623657 -7.99801636 C-50.20218749 -9.06207207 -52.93947583 -9.24134595 -56.55615234 -9.22705078 C-57.83702728 -9.22689972 -59.11790222 -9.22674866 -60.43759155 -9.22659302 C-61.82037515 -9.21638209 -63.20315712 -9.20595014 -64.5859375 -9.1953125 C-66.01225587 -9.19157835 -67.43857682 -9.18873328 -68.86489868 -9.18673706 C-72.60332427 -9.17913219 -76.34159233 -9.15951109 -80.07995605 -9.1373291 C-83.90093862 -9.11680257 -87.72194684 -9.10772084 -91.54296875 -9.09765625 C-99.02871733 -9.07626192 -106.51433652 -9.0421644 -114 -9 C-114 -9.66 -114 -10.32 -114 -11 C-81.01129081 -16.9849926 -29.12025743 -19.65059121 0 0 Z " fill="#6CC379" transform="translate(992,505)"/>
<path d="M0 0 C2.46021012 3.69031518 3.35084954 6.17668741 2.50390625 10.578125 C0.31990928 16.776689 -2.32463802 21.03887289 -6.87109375 25.76953125 C-9.00381634 28.00399841 -10.90695154 30.32013225 -12.8125 32.75 C-15.98149944 36.7611548 -19.24546975 40.6742097 -22.5625 44.5625 C-26.85555431 49.59918057 -31.00421683 54.72229322 -35 60 C-35.33 58.68 -35.66 57.36 -36 56 C-35.071875 55.4121875 -35.071875 55.4121875 -34.125 54.8125 C-31.86899273 53.20022429 -31.86899273 53.20022429 -31.28125 50.8984375 C-29.38350899 46.60537705 -26.39727492 43.37158758 -23.375 39.8125 C-22.10490197 38.29604744 -20.83536799 36.77912228 -19.56640625 35.26171875 C-18.95297363 34.53130371 -18.33954102 33.80088867 -17.70751953 33.04833984 C-14.92452991 29.70986645 -12.23596652 26.30032103 -9.55078125 22.8828125 C-8 21 -8 21 -6.42578125 19.5 C-1.43651423 14.25101771 -0.43916448 6.91684058 0 0 Z " fill="#6CBC6F" transform="translate(1110,492)"/>
<path d="M0 0 C0.99591408 -0.0076664 0.99591408 -0.0076664 2.01194763 -0.01548767 C4.20157955 -0.0293602 6.39089582 -0.0284285 8.58056641 -0.02612305 C10.10747392 -0.03001173 11.63438036 -0.03434675 13.1612854 -0.03910828 C16.36065172 -0.04656578 19.55990769 -0.04628298 22.75927734 -0.04101562 C26.85040797 -0.03522643 30.94108506 -0.0521406 35.03214073 -0.0753603 C38.18580752 -0.0901254 41.33936584 -0.0909655 44.49306107 -0.08785057 C46.00088015 -0.08836255 47.5087055 -0.09357709 49.01649094 -0.10366249 C51.12977903 -0.11606181 53.24219362 -0.109215 55.35546875 -0.09765625 C57.1560524 -0.09860039 57.1560524 -0.09860039 58.99301147 -0.0995636 C62.66941809 0.31556699 65.12018787 1.44023467 68.30712891 3.2746582 C66.30712891 4.2746582 66.30712891 4.2746582 62.80712891 3.3371582 C52.91274525 0.98286756 42.04501045 2.01175795 31.99462891 2.7746582 C17.78531816 3.84188111 3.48985062 3.6095026 -10.69287109 2.2746582 C-7.11659976 0.052435 -4.16171324 0.01599489 0 0 Z " fill="#5FBA68" transform="translate(880.69287109375,494.725341796875)"/>
<path d="M0 0 C4.68721819 -0.37497746 8.04875802 -0.48459497 12.3125 1.6875 C15.91425097 4.78668107 18.48595612 7.45786837 20 12 C20.09308544 13.66458673 20.12996185 15.33281997 20.125 17 C20.12886719 18.299375 20.12886719 18.299375 20.1328125 19.625 C20 22 20 22 19 25 C16.9375 25.6875 16.9375 25.6875 15 26 C14.67 27.32 14.34 28.64 14 30 C12.35 30 10.7 30 9 30 C9.54140625 28.98292969 9.54140625 28.98292969 10.09375 27.9453125 C13.25364655 21.60796442 15.40200782 16.12580124 14 9 C11.92652758 5.44547585 9.88691699 3.37185306 6 2 C4.00889599 1.61709538 2.00899487 1.27395385 0 1 C0 0.67 0 0.34 0 0 Z " fill="#292829" transform="translate(1037,737)"/>
<path d="M0 0 C8.53132824 -0.42907563 16.62197082 0.89798448 25 2.375 C26.31498054 2.59968309 27.63008447 2.82364523 28.9453125 3.046875 C50.33398947 6.71967812 50.33398947 6.71967812 56 10 C55.67 10.66 55.34 11.32 55 12 C52.69 11.67 50.38 11.34 48 11 C48 10.34 48 9.68 48 9 C47.505 9.185625 47.01 9.37125 46.5 9.5625 C42.42591546 10.27546479 38.33198357 9.58915792 34.33691406 8.57983398 C31.10861388 7.77882971 27.85907339 7.07887896 24.609375 6.37109375 C23.90476135 6.21713638 23.20014771 6.06317902 22.47418213 5.90455627 C20.23291039 5.41497543 17.99145821 4.92622636 15.75 4.4375 C14.22655051 4.10487264 12.70311287 3.77219096 11.1796875 3.43945312 C7.4532621 2.62567268 3.7266747 1.81263795 0 1 C0 0.67 0 0.34 0 0 Z " fill="#6ABB6D" transform="translate(1130,711)"/>
<path d="M0 0 C0 0.66 0 1.32 0 2 C0.66 2 1.32 2 2 2 C2 1.34 2 0.68 2 0 C3.32 0 4.64 0 6 0 C5.67 0.99 5.34 1.98 5 3 C-3.3268832 5.06329849 -11.22665037 6.29862668 -19.8125 6.3125 C-20.5947998 6.31765625 -21.37709961 6.3228125 -22.18310547 6.328125 C-27.74059199 6.25940801 -27.74059199 6.25940801 -30 4 C-27.525 4.495 -27.525 4.495 -25 5 C-25 4.34 -25 3.68 -25 3 C-22.33692657 2.29489078 -19.67112372 1.61083651 -17 0.9375 C-16.25621094 0.73833984 -15.51242187 0.53917969 -14.74609375 0.33398438 C-9.44604331 -0.97950639 -5.3777502 -0.97166168 0 0 Z " fill="#005FD8" transform="translate(778,966)"/>
<path d="M0 0 C0 0.66 0 1.32 0 2 C0.66 2.33 1.32 2.66 2 3 C-4.52042205 6.76600077 -10.77209214 9.88485642 -18 12 C-19.175625 12.391875 -20.35125 12.78375 -21.5625 13.1875 C-22.366875 13.455625 -23.17125 13.72375 -24 14 C-24 12.02 -24 10.04 -24 8 C-18.0504053 5.48849076 -12.2817396 3.48477481 -6 2 C-5.67 1.67 -5.34 1.34 -5 1 C-3 0 -3 0 0 0 Z " fill="#0069D1" transform="translate(826,948)"/>
<path d="M0 0 C0.99 0.33 1.98 0.66 3 1 C2.0409375 2.11375 2.0409375 2.11375 1.0625 3.25 C-2.28919216 7.71892288 -2.46340215 11.43917425 -2 17 C0.41942498 24.53519709 5.292248 29.06393245 12.171875 32.65625 C16.41851091 34.40625903 20.40539381 34.33895856 24.9375 34.1875 C25.71673828 34.17396484 26.49597656 34.16042969 27.29882812 34.14648438 C29.19952404 34.11150224 31.09985834 34.05770959 33 34 C33 34.66 33 35.32 33 36 C25.0850019 38.6383327 16.49155992 37.35189382 9 34 C2.68948147 30.84474074 -1.2381267 26.45454367 -4 20 C-4.6875 16.30859375 -4.6875 16.30859375 -5 12.4375 C-5.12375 11.15746094 -5.2475 9.87742187 -5.375 8.55859375 C-4.90424227 4.09129903 -3.41348526 2.77879035 0 0 Z " fill="#357E3A" transform="translate(950,555)"/>
<path d="M0 0 C2 3 2 3 1.78515625 4.98046875 C-1.09476252 13.77589635 -6.28521513 19.41827693 -14.203125 24.08984375 C-17.29491043 25.65590028 -19.77806133 26.11839244 -23.1875 26.0625 C-25.0746875 26.0315625 -25.0746875 26.0315625 -27 26 C-27 25.67 -27 25.34 -27 25 C-25.700625 24.79375 -24.40125 24.5875 -23.0625 24.375 C-16.79403262 22.98860911 -11.42291822 19.79852345 -7.2109375 14.93359375 C-6.61152344 13.97646484 -6.61152344 13.97646484 -6 13 C-6.32380126 11.66431979 -6.65657551 10.33076989 -7 9 C-5.6875 7.25 -5.6875 7.25 -4 6 C-3.34 6 -2.68 6 -2 6 C-2 5.01 -2 4.02 -2 3 C-1.34 3 -0.68 3 0 3 C0 2.01 0 1.02 0 0 Z M-10 11 C-7 12 -7 12 -7 12 Z " fill="#252825" transform="translate(1058,756)"/>
<path d="M0 0 C0.33 0 0.66 0 1 0 C1.20753906 1.23492188 1.41507813 2.46984375 1.62890625 3.7421875 C4.46213958 19.66784117 9.03419558 34.0760897 17.71484375 47.8125 C19 50 19 50 19 52 C14.65848022 50.55282674 13.62653497 47.2932563 11.625 43.4375 C11.22724365 42.67606689 10.8294873 41.91463379 10.41967773 41.13012695 C3.99067326 28.43077791 -0.23097287 14.32031787 0 0 Z " fill="#72A4F8" transform="translate(200,1080)"/>
<path d="M0 0 C-0.58007812 0.31710937 -1.16015625 0.63421875 -1.7578125 0.9609375 C-9.10118287 5.34757129 -13.29063411 10.87190232 -16 19 C-16.81373404 27.49770834 -16.3826612 33.27608551 -11 40 C-10.67 40.66 -10.34 41.32 -10 42 C-13.4014636 41.08068551 -14.73032662 40.42596864 -16.64453125 37.40234375 C-18.17487535 33.56104776 -18.45923296 30.25730745 -18.375 26.1875 C-18.36484863 25.48117432 -18.35469727 24.77484863 -18.34423828 24.04711914 C-18.09622957 15.67922821 -16.37589255 9.60512139 -10.6171875 3.4453125 C-7.14542431 0.34252897 -4.52423858 -1.50807953 0 0 Z " fill="#37803B" transform="translate(1033,737)"/>
<path d="M0 0 C0 1.32 0 2.64 0 4 C0.66 4 1.32 4 2 4 C3.33783393 4.31478446 4.67203709 4.64587656 6 5 C3.33708249 5.84729194 0.67070002 6.67790432 -2 7.5 C-2.74378906 7.73847656 -3.48757813 7.97695313 -4.25390625 8.22265625 C-9.35466707 9.77506172 -13.66976468 10.24228342 -19 10 C-19 9.67 -19 9.34 -19 9 C-11.575 7.515 -11.575 7.515 -4 6 C-4.99 5.34 -5.98 4.68 -7 4 C-7 4.66 -7 5.32 -7 6 C-7.66 6 -8.32 6 -9 6 C-9 5.34 -9 4.68 -9 4 C-10.32 4.33 -11.64 4.66 -13 5 C-13 4.01 -13 3.02 -13 2 C-4.57142857 -0.28571429 -4.57142857 -0.28571429 0 0 Z " fill="#0132C9" transform="translate(787,962)"/>
<path d="M0 0 C0 4.0333534 -1.60879918 5.83517538 -4 9 C-4.66 9 -5.32 9 -6 9 C-6.2475 9.556875 -6.495 10.11375 -6.75 10.6875 C-8.21606015 13.39971127 -10.02989471 15.63587365 -12 18 C-12.66 17.67 -13.32 17.34 -14 17 C-13.24074219 16.10796875 -12.48148438 15.2159375 -11.69921875 14.296875 C-10.69525246 13.11463432 -9.69134954 11.93233982 -8.6875 10.75 C-8.18798828 10.16347656 -7.68847656 9.57695313 -7.17382812 8.97265625 C-4.68918088 6.04373434 -2.2565687 3.11144626 0 0 Z M-15 18 C-14.67 18.99 -14.34 19.98 -14 21 C-14.45375 21.391875 -14.9075 21.78375 -15.375 22.1875 C-17.12986906 23.9213123 -17.12986906 23.9213123 -17.84375 26.28125 C-19.18672622 29.43905896 -20.94211687 31.67191557 -23.125 34.3125 C-23.84945313 35.19550781 -24.57390625 36.07851563 -25.3203125 36.98828125 C-26.15175781 37.98408203 -26.15175781 37.98408203 -27 39 C-27.33 37.68 -27.66 36.36 -28 35 C-27.38125 34.608125 -26.7625 34.21625 -26.125 33.8125 C-23.85489617 32.1647698 -23.85489617 32.1647698 -23.09375 29.6875 C-21.89099015 26.73214723 -20.37249027 24.66586756 -18.375 22.1875 C-17.74335937 21.39730469 -17.11171875 20.60710938 -16.4609375 19.79296875 C-15.97882813 19.20128906 -15.49671875 18.60960937 -15 18 Z " fill="#61B764" transform="translate(1102,513)"/>
<path d="M0 0 C0.33 0.66 0.66 1.32 1 2 C-5.74241449 12.19416253 -13.35181364 23.61108818 -24 30 C-22.49993609 26.55220914 -20.49590738 24.17639467 -17.9375 21.4375 C-11.62782083 14.55791433 -5.82425924 7.29014022 0 0 Z " fill="#247535" transform="translate(1082,491)"/>
<path d="M0 0 C0.33 0 0.66 0 1 0 C2.21282656 8.37187222 2.21282656 8.37187222 -0.2890625 11.73046875 C-1.59375494 12.81030994 -2.93124744 13.85104728 -4.2890625 14.86328125 C-7.98411027 17.7756604 -11.20230841 21.08892068 -14.5 24.4375 C-15.45350342 25.3980127 -15.45350342 25.3980127 -16.42626953 26.37792969 C-17.95329828 27.91618964 -19.47700128 29.45774989 -21 31 C-21 26.8586877 -18.77383557 25.2136388 -16.0625 22.375 C-15.56830566 21.84302002 -15.07411133 21.31104004 -14.56494141 20.76293945 C-11.45115989 17.43587838 -8.20323959 14.30136023 -4.875 11.1875 C-2.14796717 8.52366044 -0.49524563 6.75767557 0.0625 2.9375 C0.041875 1.968125 0.02125 0.99875 0 0 Z " fill="#3D9A4A" transform="translate(1098,479)"/>
<path d="M0 0 C2.64 0.33 5.28 0.66 8 1 C8 1.66 8 2.32 8 3 C8.66 3 9.32 3 10 3 C10 2.34 10 1.68 10 1 C11.32 1 12.64 1 14 1 C13.67 1.99 13.34 2.98 13 4 C10.60530271 4.50604924 8.20948283 5.00499517 5.8125 5.5 C5.13896484 5.64308594 4.46542969 5.78617188 3.77148438 5.93359375 C0.12490207 6.68069842 -3.27648957 7.17352282 -7 7 C-5.71034824 5.62437146 -4.37310707 4.29233607 -3 3 C-2.34 3 -1.68 3 -1 3 C-0.67 2.01 -0.34 1.02 0 0 Z " fill="#006DD3" transform="translate(770,965)"/>
<path d="M0 0 C0.66 0.33 1.32 0.66 2 1 C-4 7 -10 13 -16 19 C-16.54100342 19.58225342 -17.08200684 20.16450684 -17.6394043 20.7644043 C-19 22 -19 22 -21 22 C-20.49175613 17.90632667 -18.48988996 16.31115732 -15.4375 13.6875 C-14.53902344 12.90632812 -13.64054688 12.12515625 -12.71484375 11.3203125 C-11.81894531 10.55460938 -10.92304687 9.78890625 -10 9 C-8.49862183 7.68907672 -6.99846608 6.37675099 -5.5 5.0625 C-4.55640625 4.24458984 -4.55640625 4.24458984 -3.59375 3.41015625 C-2.3569701 2.31584855 -1.16771869 1.16771869 0 0 Z " fill="#60BA6A" transform="translate(1030,855)"/>
<path d="M0 0 C2 3 2 3 2 6 C2.66 6.33 3.32 6.66 4 7 C-0.29 7.99 -4.58 8.98 -9 10 C-9 9.34 -9 8.68 -9 8 C-8.34 7.67 -7.68 7.34 -7 7 C-7 5.35 -7 3.7 -7 2 C-6.401875 1.855625 -5.80375 1.71125 -5.1875 1.5625 C-3.43849596 1.1127561 -1.71322977 0.57107659 0 0 Z " fill="#014FD5" transform="translate(794,958)"/>
<path d="M0 0 C7.42857143 -0.28571429 7.42857143 -0.28571429 11 2 C11 2.66 11 3.32 11 4 C11.66 4 12.32 4 13 4 C13.33 3.34 13.66 2.68 14 2 C16.31 2.33 18.62 2.66 21 3 C21 4.32 21 5.64 21 7 C14.4 5.68 7.8 4.36 1 3 C0.67 2.01 0.34 1.02 0 0 Z " fill="#338F43" transform="translate(1150,740)"/>
<path d="M0 0 C4.05606122 1.83105363 6.72064127 4.15423502 9.85546875 7.2890625 C6.47257739 7.2890625 5.44261287 6.63023709 2.60546875 4.9140625 C-5.08699262 0.54306519 -12.44031657 -0.16781737 -21.14453125 -0.7109375 C-13.9854059 -4.63589657 -7.31970126 -2.57905824 0 0 Z " fill="#384739" transform="translate(982.14453125,551.7109375)"/>
<path d="M0 0 C3.30212028 0.56933108 4.89181034 1.38767802 7 4 C7.73046875 6.48046875 7.73046875 6.48046875 8.1875 9.1875 C8.34605469 10.08855469 8.50460937 10.98960937 8.66796875 11.91796875 C8.77753906 12.60503906 8.88710937 13.29210937 9 14 C9.66 14 10.32 14 11 14 C11.33 16.31 11.66 18.62 12 21 C11.01 21.33 10.02 21.66 9 22 C8.74605469 20.95199219 8.49210937 19.90398438 8.23046875 18.82421875 C7.88336225 17.44517401 7.53567556 16.06627522 7.1875 14.6875 C6.9390332 13.65206055 6.9390332 13.65206055 6.68554688 12.59570312 C5.73726615 8.89204067 4.95043784 6.47701515 2 4 C2 3.34 2 2.68 2 2 C1.34 2 0.68 2 0 2 C0 1.34 0 0.68 0 0 Z " fill="#64B66B" transform="translate(1188,725)"/>
<path d="M0 0 C2.77970267 4.169554 3.17921444 8.02874724 3 13 C1.4375 16.1875 1.4375 16.1875 -1 19 C-1.52980469 19.63292969 -2.05960938 20.26585937 -2.60546875 20.91796875 C-4.04739283 22.63389266 -5.51226262 24.32381589 -7 26 C-7 22.31203429 -5.85460639 20.7047079 -4.0625 17.5 C-1.01040055 11.61124342 -0.02594082 6.58896804 0 0 Z " fill="#70BD73" transform="translate(1117,493)"/>
<path d="M0 0 C0.99 0.33 1.98 0.66 3 1 C2.0409375 2.11375 2.0409375 2.11375 1.0625 3.25 C-2.29417936 7.72557248 -2.45629634 11.43318468 -2 17 C-0.86721318 20.10650708 0.50333272 23.05343629 2 26 C1.01 26 0.02 26 -1 26 C-3.59928927 21.43005391 -4.57766151 17.6692181 -5 12.4375 C-5.12375 11.15746094 -5.2475 9.87742187 -5.375 8.55859375 C-4.90424227 4.09129903 -3.41348526 2.77879035 0 0 Z " fill="#39863E" transform="translate(950,555)"/>
<path d="M0 0 C0.66 0.66 1.32 1.32 2 2 C-2.99226994 6.0753224 -8.16638369 9.36507906 -13.8125 12.4375 C-14.79972046 12.98664063 -14.79972046 12.98664063 -15.80688477 13.546875 C-17.49673511 14.44662315 -19.24620058 15.23232267 -21 16 C-21.99 15.67 -22.98 15.34 -24 15 C-22.78376953 14.38125 -22.78376953 14.38125 -21.54296875 13.75 C-13.82716403 9.72592489 -6.90672659 5.32883715 0 0 Z " fill="#619DFA" transform="translate(362,1148)"/>
<path d="M0 0 C1.99609375 0.3046875 1.99609375 0.3046875 4.4375 0.875 C5.24058594 1.05804688 6.04367187 1.24109375 6.87109375 1.4296875 C9 2 9 2 11 3 C11.625 5.0625 11.625 5.0625 12 7 C6.25 5.25 6.25 5.25 4 3 C1.2160817 4.39195915 1.02101003 6.15575779 0 9 C-0.33 9 -0.66 9 -1 9 C-1.09765625 2.84765625 -1.09765625 2.84765625 -1 1 C-0.67 0.67 -0.34 0.34 0 0 Z " fill="#66B16E" transform="translate(1102,479)"/>
<path d="M0 0 C2.4377963 -0.05397335 4.87439685 -0.09365616 7.3125 -0.125 C8.00279297 -0.14175781 8.69308594 -0.15851562 9.40429688 -0.17578125 C13.17135396 -0.21217794 14.78431704 -0.14378864 18 2 C12.51324804 3.86783046 7.77807024 4.2358396 2 4 C1.67 5.65 1.34 7.3 1 9 C0.67 9 0.34 9 0 9 C0 6.03 0 3.06 0 0 Z " fill="#379246" transform="translate(1115,737)"/>
<path d="M0 0 C3.93370357 0.56195765 6.83175607 1.55592611 10 4 C10 5.32 10 6.64 10 8 C9.29875 7.71125 8.5975 7.4225 7.875 7.125 C4.94547497 5.97866412 1.99078347 4.97374346 -1 4 C-0.67 2.68 -0.34 1.36 0 0 Z " fill="#9F9B9F" transform="translate(974,555)"/>
<path d="M0 0 C9.16191918 0.56291453 18.01728306 2.20796488 27 4 C27 4.33 27 4.66 27 5 C20.82260045 5.17159443 15.08370312 4.53731344 9 3.5 C8.12988281 3.35691406 7.25976562 3.21382812 6.36328125 3.06640625 C4.24124305 2.71661973 2.12047972 2.3591135 0 2 C0 1.34 0 0.68 0 0 Z " fill="#69B96C" transform="translate(1126,703)"/>
<path d="M0 0 C1.33146198 2.66292396 0.74041344 3.69423853 -0.125 6.5 C-1.59713855 10.76577823 -1.59713855 10.76577823 -4.6875 12.5625 C-5.450625 12.706875 -6.21375 12.85125 -7 13 C-7 8.22713941 -6.04367247 7.47848282 -3 4 C-1.99426222 2.67098936 -0.99204592 1.33926199 0 0 Z M-8 13 C-8 16 -8 16 -8 16 Z " fill="#62BC6C" transform="translate(1112,754)"/>
<path d="M0 0 C0.99 0.33 1.98 0.66 3 1 C2.49287967 4.71888239 1.88391785 7.73454239 0 11 C-1.65 11 -3.3 11 -5 11 C-3.35 7.37 -1.7 3.74 0 0 Z " fill="#A5A0A4" transform="translate(1051,756)"/>
<path d="M0 0 C-0.59167969 0.37511719 -1.18335938 0.75023437 -1.79296875 1.13671875 C-6.35981624 4.09436713 -10.3317794 6.97679031 -14 11 C-14.33 10.01 -14.66 9.02 -15 8 C-13.75482035 6.86966702 -12.50363348 5.74594964 -11.25 4.625 C-10.55390625 3.99851562 -9.8578125 3.37203125 -9.140625 2.7265625 C-4.07577375 -1.35859125 -4.07577375 -1.35859125 0 0 Z " fill="#439847" transform="translate(1033,737)"/>
<path d="M0 0 C0 4.04016453 -1.46869212 4.9566059 -4.1875 7.875 C-5.00476562 8.75671875 -5.82203125 9.6384375 -6.6640625 10.546875 C-9.07166934 13.07526479 -11.49127434 15.57220098 -14 18 C-13.41187609 14.68107371 -12.37260416 12.97321601 -10.05859375 10.546875 C-9.47529297 9.928125 -8.89199219 9.309375 -8.29101562 8.671875 C-7.67935547 8.03765625 -7.06769531 7.4034375 -6.4375 6.75 C-5.82197266 6.1003125 -5.20644531 5.450625 -4.57226562 4.78125 C-3.05456842 3.18119713 -1.53042885 1.58786356 0 0 Z " fill="#71C073" transform="translate(1106,521)"/>
<path d="M0 0 C4.21814817 3.9700218 7.61227103 8.30840284 11 13 C8 13 8 13 5.9921875 11.13671875 C5.29351562 10.32847656 4.59484375 9.52023437 3.875 8.6875 C3.17117187 7.88699219 2.46734375 7.08648438 1.7421875 6.26171875 C0 4 0 4 -1 1 C-0.67 0.67 -0.34 0.34 0 0 Z " fill="#5F91E7" transform="translate(219,1131)"/>
<path d="M0 0 C0.66 1.32 1.32 2.64 2 4 C1.195625 3.814375 0.39125 3.62875 -0.4375 3.4375 C-1.7059375 3.2209375 -1.7059375 3.2209375 -3 3 C-3.33 3.33 -3.66 3.66 -4 4 C-6.33297433 4.04092937 -8.66705225 4.04241723 -11 4 C-11 3.34 -11 2.68 -11 2 C-7.12315913 0.80712589 -4.08378077 0 0 0 Z " fill="#0051CB" transform="translate(769,966)"/>
<path d="M0 0 C2.45341915 2.45341915 2.67577385 4.44101326 3.046875 7.82421875 C2.97014202 11.38590802 1.6324242 13.86574554 0 17 C-0.66 17 -1.32 17 -2 17 C-1.67 16.236875 -1.34 15.47375 -1 14.6875 C0.33945668 9.74825349 0.16287658 5.08536891 0 0 Z " fill="#354836" transform="translate(994,564)"/>
<path d="M0 0 C0 3.99282941 -1.47808076 5.15331592 -4 8.1875 C-4.7425 9.08855469 -5.485 9.98960937 -6.25 10.91796875 C-6.8275 11.60503906 -7.405 12.29210937 -8 13 C-8.63671875 11.15625 -8.63671875 11.15625 -9 9 C-6.8125 6.5 -6.8125 6.5 -4 4 C-3.236875 3.236875 -2.47375 2.47375 -1.6875 1.6875 C-1.130625 1.130625 -0.57375 0.57375 0 0 Z " fill="#68BA6C" transform="translate(1083,539)"/>
<path d="M0 0 C0 0.66 0 1.32 0 2 C0.66 2.33 1.32 2.66 2 3 C0.54735962 3.8638129 -0.9123163 4.71580454 -2.375 5.5625 C-3.59316406 6.27599609 -3.59316406 6.27599609 -4.8359375 7.00390625 C-5.55007813 7.33261719 -6.26421875 7.66132812 -7 8 C-7.66 7.67 -8.32 7.34 -9 7 C-7.35 6.34 -5.7 5.68 -4 5 C-4.33 3.68 -4.66 2.36 -5 1 C-3 0 -3 0 0 0 Z " fill="#0036CE" transform="translate(826,948)"/>
<path d="M0 0 C0.92232422 0.28810547 0.92232422 0.28810547 1.86328125 0.58203125 C-4.37833778 4.16328807 -8.89092156 6.2529384 -16.13671875 5.58203125 C-16.13671875 5.25203125 -16.13671875 4.92203125 -16.13671875 4.58203125 C-15.24919922 4.41767578 -15.24919922 4.41767578 -14.34375 4.25 C-10.60152109 3.49911231 -7.62666971 2.87600183 -4.32421875 0.89453125 C-2.13671875 -0.41796875 -2.13671875 -0.41796875 0 0 Z " fill="#1B2A1D" transform="translate(1047.13671875,776.41796875)"/>
<path d="M0 0 C3.25511789 0.56122722 4.99840071 1.33120095 7 4 C7.6875 6.6875 7.6875 6.6875 8 9 C7.34 9 6.68 9 6 9 C2 4.52941176 2 4.52941176 2 2 C1.34 2 0.68 2 0 2 C0 1.34 0 0.68 0 0 Z " fill="#75C078" transform="translate(1188,725)"/>
<path d="M0 0 C0.66 0.33 1.32 0.66 2 1 C0.73548068 2.31858428 -0.53685475 3.62967631 -1.8125 4.9375 C-2.52019531 5.66839844 -3.22789063 6.39929688 -3.95703125 7.15234375 C-6 9 -6 9 -9 10 C-7.61811547 6.78956118 -6.07578097 4.95063635 -3.375 2.75 C-2.74335937 2.22921875 -2.11171875 1.7084375 -1.4609375 1.171875 C-0.73777344 0.59179688 -0.73777344 0.59179688 0 0 Z " fill="#359045" transform="translate(1055,525)"/>
<path d="M0 0 C0.99 0.33 1.98 0.66 3 1 C2.360625 1.78375 1.72125 2.5675 1.0625 3.375 C-0.98142313 5.79539281 -0.98142313 5.79539281 -2 8 C-2.99 7.67 -3.98 7.34 -5 7 C-3.70700306 4.11562221 -2.34058637 2.12780579 0 0 Z " fill="#46984A" transform="translate(950,555)"/>
<path d="M0 0 C3.3 1.65 6.6 3.3 10 5 C5.23374833 6.19156292 4.12120649 5.3415946 0 3 C0 2.01 0 1.02 0 0 Z " fill="#6AC177" transform="translate(1008,512)"/>
<path d="M0 0 C2.02902622 3.04353933 2.41438746 4.40756882 2.8125 7.9375 C2.92207031 8.79214844 3.03164062 9.64679688 3.14453125 10.52734375 C3 13 3 13 0 17 C0 11.39 0 5.78 0 0 Z " fill="#66B969" transform="translate(1117,493)"/>
<path d="M0 0 C0.33 0 0.66 0 1 0 C0.67 3.63 0.34 7.26 0 11 C-0.99 10.67 -1.98 10.34 -3 10 C-2.01 6.7 -1.02 3.4 0 0 Z " fill="#4D83E6" transform="translate(486,268)"/>
<path d="M0 0 C0.99 0.99 1.98 1.98 3 3 C2.01 4.485 2.01 4.485 1 6 C0.34 6 -0.32 6 -1 6 C-1 5.01 -1 4.02 -1 3 C-1.66 3 -2.32 3 -3 3 C-3 2.34 -3 1.68 -3 1 C-2.01 0.67 -1.02 0.34 0 0 Z " fill="#0061C4" transform="translate(809,953)"/>
<path d="M0 0 C1 2 1 2 0.1875 5.0625 C-1 8 -1 8 -3 9 C-2.25 2.25 -2.25 2.25 0 0 Z " fill="#979396" transform="translate(1025,749)"/>
<path d="M0 0 C3.37462715 0.54723683 5.08235 1.0549 8 3 C8 3.66 8 4.32 8 5 C4.20411134 4.45773019 2.52788007 2.79872437 0 0 Z " fill="#999598" transform="translate(960,580)"/>
<path d="M0 0 C1.32 0.66 2.64 1.32 4 2 C4 2.66 4 3.32 4 4 C1.36 4.66 -1.28 5.32 -4 6 C-4 5.34 -4 4.68 -4 4 C-2.68 3.67 -1.36 3.34 0 3 C0 2.01 0 1.02 0 0 Z " fill="#0088D6" transform="translate(789,962)"/>
<path d="M0 0 C-0.33 1.32 -0.66 2.64 -1 4 C-2.98 4.33 -4.96 4.66 -7 5 C-6 2 -6 2 -4.0625 0.8125 C-2 0 -2 0 0 0 Z " fill="#0094FF" transform="translate(818,953)"/>
<path d="M0 0 C1.98 1.65 3.96 3.3 6 5 C5.34 5.66 4.68 6.32 4 7 C2.35 5.02 0.7 3.04 -1 1 C-0.67 0.67 -0.34 0.34 0 0 Z " fill="#6598FA" transform="translate(224,1138)"/>
<path d="M0 0 C2.64 0.66 5.28 1.32 8 2 C8 2.33 8 2.66 8 3 C4.37 3.33 0.74 3.66 -3 4 C-2.01 2.68 -1.02 1.36 0 0 Z " fill="#008AC4" transform="translate(766,968)"/>
<path d="M0 0 C0.33 0 0.66 0 1 0 C0.67 2.31 0.34 4.62 0 7 C-1.32 6.67 -2.64 6.34 -4 6 C-2.69593116 3.98079663 -1.36176581 1.98075027 0 0 Z " fill="#303631" transform="translate(1056,763)"/>
</svg>
