<?xml version="1.0" encoding="UTF-8"?>
<svg version="1.1" xmlns="http://www.w3.org/2000/svg" width="2400" height="2410">
<path d="M0 0 C3.93461771 0.00008063 7.86911743 -0.00677436 11.80371094 -0.02050781 C46.29382071 -0.13884059 80.64230677 0.89425001 115.01000977 3.93530273 C115.96184143 4.01800415 116.9136731 4.10070557 117.89434814 4.18591309 C218.69670658 13.01822943 317.73204708 34.18796978 602.44555664 151.6784668 C605.71456789 153.599291 609.01502317 155.45657187 612.32250977 157.31030273 C638.66279239 172.32553631 663.92612918 189.7892482 688.01000977 208.18530273 C688.79819092 208.7842334 688.79819092 208.7842334 689.60229492 209.39526367 C696.18980428 214.40184895 702.67740218 219.51110582 709.06860352 224.76733398 C717.73542222 231.89185029 726.31263377 238.89923708 735.73657227 245.01342773 C748.93208203 253.76844376 761.50690692 263.47890583 774.01000977 273.18530273 C774.61796387 273.65677734 775.22591797 274.12825195 775.85229492 274.61401367 C789.2689011 285.03805454 802.45687074 295.74796879 815.37280273 306.78637695 C817.10534303 308.26676107 818.84085638 309.74361631 820.57641602 311.22045898 C827.48256558 317.10733304 834.2942828 323.0811072 841.01000977 329.18530273 C842.67589475 330.68617081 844.34257085 332.18616123 846.01000977 333.68530273 C846.83114258 334.42522461 847.65227539 335.16514648 848.49829102 335.92749023 C850.2004166 337.45755025 851.90627001 338.98347153 853.61547852 340.50561523 C857.93932986 344.36502869 862.14917287 348.27310088 866.20497131 352.41270447 C867.94966868 354.1260461 869.75162819 355.71226878 871.61328125 357.296875 C876.53336172 361.57842284 881.12786824 366.15945248 885.73266602 370.77514648 C886.63697861 371.67850235 887.5412912 372.58185822 888.4730072 373.5125885 C890.3743592 375.41326341 892.27468529 377.31489882 894.17333984 379.21826172 C896.58586837 381.63648665 899.00286058 384.05019231 901.42122746 386.46257687 C903.75665552 388.79348675 906.08823153 391.1282423 908.42016602 393.46264648 C909.27763931 394.31809555 910.13511261 395.17354462 911.01856995 396.05491638 C915.33453695 400.38758599 919.51045695 404.7767558 923.47410583 409.43531799 C925.08179497 411.26709367 926.77011586 412.97930028 928.51000977 414.68530273 C931.50235352 417.63130488 934.26325149 420.71513281 937.00219727 423.89624023 C938.95363764 426.12103412 940.95184624 428.29700774 942.96459961 430.46630859 C947.79305462 435.67237568 952.37506107 441.00346254 956.83032227 446.53686523 C958.98758375 449.15805392 961.22311977 451.67684554 963.51000977 454.18530273 C967.73282799 458.82967597 971.70598632 463.63922065 975.65258789 468.51879883 C977.20373912 470.42314385 978.76989906 472.31453405 980.33813477 474.20483398 C986.89844194 482.11544936 993.35016868 490.07270408 999.5534668 498.26782227 C1001.26919289 500.52650693 1002.99689704 502.77580511 1004.72485352 505.02514648 C1021.9579353 527.49103815 1038.49730826 550.49396717 1054.01000977 574.18530273 C1054.43314453 574.82967285 1054.8562793 575.47404297 1055.29223633 576.13793945 C1078.23711198 611.13269613 1099.20749281 647.30236256 1118.17944336 684.59594727 C1119.9160194 688.00751701 1121.67584865 691.40681932 1123.43579102 694.80639648 C1138.45698467 724.06207289 1151.4313701 754.41454729 1163.01000977 785.18530273 C1163.43765625 786.30646484 1163.86530273 787.42762695 1164.3059082 788.58276367 C1178.08144713 824.75755288 1189.64811529 861.629639 1199.01000977 899.18530273 C1199.21154663 899.9925177 1199.4130835 900.79973267 1199.62072754 901.63140869 C1206.24403307 928.26605133 1211.52201662 955.11271186 1216.01000977 982.18530273 C1216.14473694 982.9892749 1216.27946411 983.79324707 1216.41827393 984.62158203 C1222.91477783 1023.54585112 1225.93690298 1063.03476003 1229.40008354 1102.31949139 C1229.80544387 1106.91072 1230.22324092 1111.50045475 1230.65698242 1116.08911133 C1236.11326218 1174.25955552 1235.95797036 1235.42570774 1230.26324463 1293.57629395 C1229.99537786 1296.33605124 1229.74166896 1299.09687576 1229.48999023 1301.8581543 C1222.65550078 1376.14576366 1208.77706326 1449.79667785 1187.01000977 1521.18530273 C1186.78140259 1521.93732971 1186.55279541 1522.68935669 1186.31726074 1523.46417236 C1176.24897831 1556.54012743 1165.06259913 1589.15963634 1152.01000977 1621.18530273 C1151.26630127 1623.01061523 1151.26630127 1623.01061523 1150.50756836 1624.87280273 C1129.61287295 1675.98303923 1105.79246286 1726.06753921 1077.56518555 1773.55102539 C1075.64282441 1776.80726977 1073.76756771 1780.08900478 1071.89453125 1783.3737793 C1060.68045853 1802.9813214 1048.33802451 1821.83090604 1035.82250977 1840.62280273 C1035.22963165 1841.51395782 1034.63675354 1842.40511292 1034.02590942 1843.32327271 C1023.96888455 1858.4250627 1013.6868736 1873.35435157 1002.88500977 1887.93530273 C1002.29937256 1888.72767334 1001.71373535 1889.52004395 1001.11035156 1890.33642578 C996.1592152 1897.01812219 991.12597589 1903.62891897 986.01000977 1910.18530273 C985.37530762 1911.0012793 985.37530762 1911.0012793 984.7277832 1911.83374023 C977.76520006 1920.7804792 970.65439531 1929.60181472 963.48217773 1938.38110352 C962.18729466 1939.96803319 960.89710498 1941.5587901 959.60766602 1943.15014648 C951.34730565 1953.322489 942.8198035 1963.26274828 934.01391602 1972.96655273 C932.19688995 1974.97838667 930.41056584 1977.01190707 928.63500977 1979.06030273 C924.80175807 1983.45882657 920.85292616 1987.74961639 916.90063477 1992.04077148 C915.00614526 1994.09780972 913.12093448 1996.16267005 911.24438477 1998.23608398 C905.89203464 2004.13817621 900.41718754 2009.85560171 894.71313477 2015.41967773 C892.6117938 2017.56960462 890.639379 2019.73689326 888.67797852 2022.00952148 C884.98377982 2026.27144119 881.07098573 2030.27246164 877.07250977 2034.24780273 C876.40799805 2034.91618164 875.74348633 2035.58456055 875.05883789 2036.27319336 C871.12031543 2040.20407562 867.06376014 2043.92722223 862.8515625 2047.56201172 C860.28036905 2049.82846608 857.90490404 2052.23270016 855.51000977 2054.68530273 C851.89593119 2058.34831228 848.20739349 2061.84695923 844.29125977 2065.18530273 C841.81699693 2067.35451947 839.42056699 2069.59429588 837.0222168 2071.84667969 C831.39531413 2077.13102941 825.68335932 2082.18117066 819.65454102 2087.00952148 C816.85161729 2089.31561974 814.17997701 2091.72681804 811.51000977 2094.18530273 C806.18026583 2099.07904505 800.64230726 2103.64637589 795.01000977 2108.18530273 C793.79173413 2109.18299078 792.5743367 2110.18175184 791.35766602 2111.18139648 C782.41605252 2118.51501484 773.33059572 2125.63226123 764.10375977 2132.60327148 C762.05942602 2134.14796396 760.0189945 2135.69770252 757.97875977 2137.24780273 C749.20800162 2143.89052067 740.29094526 2150.29976182 731.27124023 2156.59936523 C728.92806086 2158.24277845 726.59531615 2159.90022834 724.26391602 2161.56030273 C712.97601783 2169.57262947 701.46600821 2177.15217468 689.72729492 2184.48706055 C687.10258882 2186.1274429 684.48379391 2187.77693311 681.86547852 2189.42749023 C631.04066923 2221.33065672 577.27131177 2248.50454561 520.80200195 2268.88842773 C512.96133369 2271.74839328 505.64875097 2275.11706917 498.27905273 2279.00708008 C456.37425165 2300.76655609 411.62041925 2317.89807704 367.01000977 2333.18530273 C366.36491455 2333.40728333 365.71981934 2333.62926392 365.05517578 2333.85797119 C308.36440353 2353.36181788 250.76573346 2369.23022577 192.01000977 2381.18530273 C191.19459717 2381.35161194 190.37918457 2381.51792114 189.5390625 2381.68927002 C140.39730498 2391.67972368 90.75198553 2398.58735322 40.76000977 2402.43530273 C39.14085159 2402.56006485 39.14085159 2402.56006485 37.48898315 2402.68734741 C30.33208206 2403.23178342 23.1730628 2403.72907924 16.01000977 2404.18530273 C14.73578659 2404.2685228 14.73578659 2404.2685228 13.43582153 2404.35342407 C-4.42960534 2405.47695116 -22.3312739 2405.3726684 -40.22412109 2405.37060547 C-43.74956461 2405.37052483 -47.27487645 2405.37738259 -50.80029297 2405.39111328 C-82.4398385 2405.51220603 -113.92361244 2404.45582314 -145.42749023 2401.37280273 C-146.3068927 2401.28848999 -147.18629517 2401.20417725 -148.09234619 2401.11730957 C-233.31920587 2392.90900434 -317.47842491 2374.20643931 -467.31739807 2313.853302 C-474.06776369 2310.65875559 -480.87462961 2307.59052235 -487.68127441 2304.51824951 C-502.22182321 2297.95169851 -516.66023798 2291.20231948 -530.98999023 2284.18530273 C-532.05266113 2283.66758301 -533.11533203 2283.14986328 -534.21020508 2282.61645508 C-548.78881391 2275.49908352 -563.01604496 2267.94424019 -577.07299805 2259.84887695 C-580.08068289 2258.13358029 -583.1057952 2256.45371929 -586.13842773 2254.78295898 C-607.72850439 2242.88274442 -628.34464305 2229.6976464 -648.86499023 2216.06030273 C-650.08850189 2215.24873718 -650.08850189 2215.24873718 -651.33673096 2214.42077637 C-662.44494193 2207.0429076 -673.35085245 2199.43095433 -684.11364746 2191.55773926 C-686.52994322 2189.79035827 -688.9539775 2188.03369026 -691.37670898 2186.27514648 C-700.5651554 2179.55669051 -709.56881525 2172.6597826 -718.39868164 2165.47680664 C-720.6672937 2163.63560416 -722.95395495 2161.81730021 -725.23999023 2159.99780273 C-734.09024559 2152.90886464 -742.80473673 2145.6829164 -751.39233398 2138.27905273 C-753.72782403 2136.26585148 -756.07355425 2134.26602112 -758.43139648 2132.27905273 C-765.52709508 2126.28362693 -772.39642716 2120.09600356 -779.1340332 2113.69970703 C-782.57124974 2110.43780378 -786.04736775 2107.23599868 -789.59179688 2104.09057617 C-795.01584189 2099.21510985 -800.19521325 2094.12462086 -805.34545898 2088.96264648 C-806.30074317 2088.00803878 -807.25617551 2087.05357931 -808.21174622 2086.09925842 C-810.19568531 2084.1167787 -812.17784311 2082.13254048 -814.15869141 2080.14697266 C-816.67652854 2077.6234236 -819.19885218 2075.10441416 -821.72252941 2072.58670712 C-823.68993849 2070.62293828 -825.65492694 2068.65676108 -827.61922646 2066.68988228 C-828.9931148 2065.31501894 -830.36898771 2063.94213965 -831.74491882 2062.56932068 C-836.14705752 2058.15082055 -840.422107 2053.68282698 -844.47386169 2048.93954468 C-847.16794031 2045.82235139 -850.03124528 2042.86247526 -852.86499023 2039.87280273 C-857.75524354 2034.67771589 -862.39428741 2029.37177516 -866.84936523 2023.79467773 C-869.14119488 2021.00098758 -871.54230836 2018.34321496 -873.98999023 2015.68530273 C-878.88367283 2010.35562384 -883.45206867 2004.81833786 -887.98999023 1999.18530273 C-889.02293257 1997.92023475 -890.05684681 1996.65595993 -891.09155273 1995.39233398 C-897.36005651 1987.72918085 -903.52409582 1980.00781939 -909.51293945 1972.12329102 C-911.24916946 1969.84524245 -912.99657878 1967.57595111 -914.74389648 1965.30639648 C-922.51664012 1955.18998078 -930.11016184 1944.98850803 -937.37817383 1934.50366211 C-939.16225897 1931.93751966 -940.96037844 1929.38153379 -942.75952148 1926.82592773 C-952.1396509 1913.46988695 -961.17462107 1899.91988418 -969.98999023 1886.18530273 C-970.50480957 1885.38737305 -971.01962891 1884.58944336 -971.55004883 1883.76733398 C-1025.40901875 1800.20346626 -1068.31137501 1709.48018535 -1163.73284912 1324.96154785 C-1163.97660724 1322.32979336 -1164.23196266 1319.69943164 -1164.49047852 1317.0690918 C-1167.13064286 1289.72170285 -1167.30148576 1262.33623122 -1167.35790634 1234.88563156 C-1167.36483654 1232.06045888 -1167.37648388 1229.23533928 -1167.3890686 1226.41018677 C-1167.56464851 1180.71934777 -1164.20924037 1135.51307052 -1156.52792358 1090.46710205 C-1154.62533195 1079.22255858 -1153.31255415 1068.05786125 -1152.48999023 1056.68530273 C-1149.92756738 1021.59754206 -1144.42214664 986.75515371 -1137.98999023 952.18530273 C-1137.83419495 951.34491455 -1137.67839966 950.50452637 -1137.5178833 949.63867188 C-1126.18377755 888.77232336 -1109.90612955 828.83592937 -1089.72637939 770.32415771 C-1088.98960107 768.18417241 -1088.25753608 766.04262576 -1087.52661133 763.90063477 C-1066.00210267 700.91231147 -1039.05039946 638.93523663 -1006.47924805 580.84741211 C-1004.85319066 577.94076788 -1003.24538446 575.02442225 -1001.63842773 572.10717773 C-993.78637307 557.90245573 -985.57263521 543.96021753 -976.98999023 530.18530273 C-976.43907715 529.29842773 -975.88816406 528.41155273 -975.32055664 527.49780273 C-961.88023735 505.92349262 -947.63742519 484.79961752 -932.56567383 464.33032227 C-930.88133616 462.03738909 -929.21060045 459.73491368 -927.54077148 457.43139648 C-920.96336333 448.38950042 -914.18325971 439.57872423 -907.07202148 430.95092773 C-904.14278784 427.39315408 -901.31163056 423.76603078 -898.48999023 420.12280273 C-892.60848984 412.56303636 -886.31881538 405.37113291 -879.98999023 398.18530273 C-878.80211912 396.8314616 -877.61453804 395.4773658 -876.42749023 394.12280273 C-875.90799805 393.53241211 -875.38850586 392.94202148 -874.85327148 392.33374023 C-873.29519956 390.53722124 -871.75484968 388.72854283 -870.22045898 386.91186523 C-865.09283854 380.85410688 -859.97080915 374.92947727 -854.22045898 369.44311523 C-852.34338617 367.54303102 -850.61775594 365.60935647 -848.8815918 363.58349609 C-844.93153173 359.05529974 -840.74730921 354.79830027 -836.49389648 350.55639648 C-835.30533302 349.36639793 -835.30533302 349.36639793 -834.09275818 348.15235901 C-832.42748741 346.48641193 -830.76096995 344.82171017 -829.09326172 343.15820312 C-826.55964402 340.62994139 -824.03140856 338.09638613 -821.50366211 335.56225586 C-819.87572741 333.93498204 -818.24748249 332.30801848 -816.61889648 330.68139648 C-815.87281631 329.93329208 -815.12673615 329.18518768 -814.35804749 328.41441345 C-810.29506338 324.36927734 -806.14875162 320.48475061 -801.79559326 316.75279236 C-798.66598534 314.03590062 -795.68487172 311.16081216 -792.67749023 308.31030273 C-787.45532389 303.39490211 -782.14099792 298.74010177 -776.53686523 294.26342773 C-773.91990693 292.1281182 -771.42156245 289.8999991 -768.92749023 287.62280273 C-764.99481891 284.04764698 -760.95763558 280.67639008 -756.78295898 277.38842773 C-754.75261688 275.78687117 -752.73594154 274.1741249 -750.72827148 272.54467773 C-731.48907511 256.9609818 -711.4748865 242.29469187 -691.02368164 228.34399414 C-685.99966407 224.90663892 -681.04590935 221.37974295 -676.11499023 217.81030273 C-675.3524292 217.25906738 -674.58986816 216.70783203 -673.80419922 216.13989258 C-670.21415771 213.53964482 -666.63525402 210.92645654 -663.07983398 208.27905273 C-640.65668787 191.68631165 -616.92109822 176.50157407 -592.98999023 162.18530273 C-591.37229736 161.21633057 -591.37229736 161.21633057 -589.72192383 160.2277832 C-573.7095661 150.65803448 -557.52138956 141.48780023 -541.01879883 132.78344727 C-538.14670525 131.26799308 -535.28086799 129.74127563 -532.41577148 128.21264648 C-484.74235744 102.90899977 -435.02087866 81.7240741 -383.98999023 64.18530273 C-382.97772369 63.83692352 -382.97772369 63.83692352 -381.94500732 63.48150635 C-329.53999423 45.46638792 -275.74405965 30.27511623 -221.1383667 20.56890869 C-218.85686477 20.16153236 -216.57694211 19.74601123 -214.29711914 19.3293457 C-163.6155192 10.09868715 -112.43501837 3.99370788 -60.98999023 1.18530273 C-60.29445038 1.14293488 -59.59891052 1.10056702 -58.8822937 1.05691528 C-39.27398123 -0.11760021 -19.63531182 -0.00212322 0 0 Z M-139.98999023 852.18530273 C-163.88785955 938.29853232 -181.40574254 1025.41820783 -191.98999023 1114.18530273 C-192.1090271 1115.18333923 -192.22806396 1116.18137573 -192.35070801 1117.20965576 C-197.81858795 1163.36532882 -201.29860979 1209.73936615 -202.98999023 1256.18530273 C-203.0192157 1256.98139954 -203.04844116 1257.77749634 -203.07855225 1258.59771729 C-206.0938702 1341.9210741 -207.39209604 1431.27117457 -189.98999023 1513.18530273 C-106.947315 1493.29356082 -25.60708537 1465.4207169 53.01000977 1432.18530273 C53.68277954 1431.90124573 54.35554932 1431.61718872 55.04870605 1431.32452393 C83.92658108 1419.11875172 112.41255416 1406.02692407 140.59594727 1392.29858398 C145.31319425 1390.00109713 150.04779264 1387.74672376 154.80151367 1385.52587891 C163.28652972 1381.56034567 171.59332298 1377.32530488 179.85766602 1372.91967773 C184.6615792 1370.3598527 189.49462971 1367.85857088 194.33105469 1365.36083984 C205.67388797 1359.49762791 216.90466035 1353.48563695 228.01000977 1347.18530273 C228.99179199 1346.63068359 229.97357422 1346.07606445 230.98510742 1345.50463867 C256.39334342 1331.14029072 281.70267839 1316.59568363 306.03735352 1300.46264648 C310.33143263 1297.6159731 314.68213236 1294.8801248 319.07250977 1292.18530273 C335.17674012 1282.24294593 350.61780042 1271.18788201 366.01000977 1260.18530273 C366.75766602 1259.65163086 367.50532227 1259.11795898 368.27563477 1258.56811523 C377.42983457 1252.02501269 386.50305926 1245.40513575 395.36108398 1238.46508789 C397.20193902 1237.03634017 399.06028606 1235.63215157 400.92016602 1234.22827148 C402.22111479 1233.23500128 403.52189959 1232.24151627 404.82250977 1231.24780273 C405.44029297 1230.78680176 406.05807617 1230.32580078 406.69458008 1229.85083008 C408.18948011 1228.69870695 409.6078808 1227.4486903 411.01000977 1226.18530273 C411.32318807 1223.17522282 411.32318807 1223.17522282 409.50732422 1221.31512451 C408.80309326 1220.61453918 408.0988623 1219.91395386 407.37329102 1219.19213867 C406.57826172 1218.39410828 405.78323242 1217.59607788 404.96411133 1216.77386475 C403.65651855 1215.48479218 403.65651855 1215.48479218 402.32250977 1214.16967773 C401.43144531 1213.28048645 400.54038086 1212.39129517 399.62231445 1211.47515869 C397.72905837 1209.58863944 395.83328288 1207.70517183 393.93237305 1205.82641602 C391.51625007 1203.43833237 389.10865717 1201.04188737 386.70426941 1198.64199448 C384.39264193 1196.33557606 382.07636751 1194.0338441 379.76000977 1191.73217773 C378.47670776 1190.45525055 378.47670776 1190.45525055 377.16748047 1189.15252686 C372.77760078 1184.81406581 368.32544441 1180.60965685 363.63696289 1176.59454346 C361.66106121 1174.88304909 359.82526672 1173.0653903 358.01000977 1171.18530273 C354.88155013 1168.01440275 351.64145624 1165.05960313 348.26391602 1162.15795898 C346.05042719 1160.22067674 343.88810406 1158.23431489 341.73193359 1156.23364258 C337.44856123 1152.2603632 333.13055401 1148.40885576 328.57250977 1144.74780273 C324.38760389 1141.3818137 320.42714936 1137.85326921 316.51000977 1134.18530273 C311.7578735 1129.74067815 306.88642227 1125.53149874 301.81079102 1121.45483398 C298.72805628 1118.95682997 295.71298986 1116.38854725 292.69750977 1113.81030273 C287.73495997 1109.58229258 282.66600409 1105.51883309 277.51806641 1101.51953125 C272.81384069 1097.85195004 268.22003181 1094.06284491 263.63500977 1090.24780273 C257.58136392 1085.22433275 251.4185301 1080.40187312 245.09594727 1075.72241211 C240.04259037 1071.97936791 235.08110163 1068.13115973 230.13500977 1064.24780273 C221.9929101 1057.87561067 213.66606821 1051.79518501 205.2512207 1045.78979492 C202.27919193 1043.66210722 199.32258626 1041.51349449 196.36523438 1039.36547852 C168.8624041 1019.4165181 140.61415519 1000.51675197 112.01000977 982.18530273 C111.27878906 981.71576172 110.54756836 981.2462207 109.79418945 980.76245117 C86.60404081 965.90165947 62.95880516 951.78525959 39.01000977 938.18530273 C37.98343262 937.60184082 36.95685547 937.01837891 35.89916992 936.41723633 C28.62813958 932.29372868 21.32941869 928.22226708 14.01000977 924.18530273 C13.00534668 923.63003906 12.00068359 923.07477539 10.96557617 922.50268555 C-23.84274929 903.34672401 -59.5168438 885.64284702 -96.04724121 870.01739502 C-97.95908913 869.19853788 -99.86889737 868.37510766 -101.77807617 867.55004883 C-105.26232029 866.04618964 -108.74977808 864.55025374 -112.23999023 863.06030273 C-113.20855957 862.64675537 -114.17712891 862.23320801 -115.17504883 861.80712891 C-123.35792822 858.36077734 -131.66343306 855.26331035 -139.98999023 852.18530273 Z " fill="#C7E8EA" transform="translate(1166.989990234375,-0.185302734375)"/>
<path d="M0 0 C1.36064687 -0.00323446 2.72129344 -0.00659991 4.0819397 -0.01008606 C6.92410073 -0.0160244 9.76623165 -0.01793208 12.60839844 -0.01733398 C15.44668083 -0.01725372 18.28479837 -0.02404424 21.12304688 -0.0378418 C47.09466589 -0.16196941 73.04145259 0.67508645 98.8515625 3.79296875 C99.51832001 3.87244751 100.18507751 3.95192627 100.87203979 4.03381348 C126.90109328 7.18275849 152.75461037 12.31097601 178.2265625 18.48046875 C179.24956955 18.72754578 179.24956955 18.72754578 180.29324341 18.97961426 C192.70253925 22.00230145 202.09393317 25.76061026 212.5390625 33.16796875 C213.20760254 33.64057129 213.87614258 34.11317383 214.56494141 34.60009766 C225.75176681 42.53479121 236.70607935 50.75811758 247.5390625 59.16796875 C248.1470166 59.63944336 248.7549707 60.11091797 249.38134766 60.59667969 C262.79795384 71.02072055 275.98592347 81.73063481 288.90185547 92.76904297 C290.63439576 94.24942709 292.36990911 95.72628233 294.10546875 97.203125 C301.01161832 103.08999906 307.82333554 109.06377322 314.5390625 115.16796875 C316.20494749 116.66883683 317.87162359 118.16882724 319.5390625 119.66796875 C320.36019531 120.40789062 321.18132813 121.1478125 322.02734375 121.91015625 C323.72946934 123.44021626 325.43532275 124.96613755 327.14453125 126.48828125 C331.46838259 130.3476947 335.67822561 134.2557669 339.73402405 138.39537048 C341.47872141 140.10871212 343.28068092 141.6949348 345.14233398 143.27954102 C350.06241446 147.56108886 354.65692098 152.14211849 359.26171875 156.7578125 C360.16603134 157.66116837 361.07034393 158.56452423 362.00205994 159.49525452 C363.90341193 161.39592943 365.80373803 163.29756483 367.70239258 165.20092773 C370.11492111 167.61915267 372.53191331 170.03285833 374.95028019 172.44524288 C377.28570825 174.77615276 379.61728427 177.11090831 381.94921875 179.4453125 C382.80669205 180.30076157 383.66416534 181.15621063 384.54762268 182.0375824 C388.86358969 186.370252 393.03950968 190.75942182 397.00315857 195.41798401 C398.6108477 197.24975968 400.2991686 198.9619663 402.0390625 200.66796875 C405.03140625 203.6139709 407.79230422 206.69779882 410.53125 209.87890625 C412.48269037 212.10370014 414.48089898 214.27967376 416.49365234 216.44897461 C421.32210735 221.65504169 425.9041138 226.98612855 430.359375 232.51953125 C432.51663649 235.14071994 434.7521725 237.65951156 437.0390625 240.16796875 C441.26188073 244.81234198 445.23503906 249.62188667 449.18164062 254.50146484 C450.73279186 256.40580987 452.29895179 258.29720006 453.8671875 260.1875 C460.42749468 268.09811537 466.87922141 276.05537009 473.08251953 284.25048828 C474.79824562 286.50917295 476.52594978 288.75847112 478.25390625 291.0078125 C495.48698804 313.47370416 512.02636099 336.47663318 527.5390625 360.16796875 C528.17376465 361.13452393 528.17376465 361.13452393 528.82128906 362.12060547 C551.76616471 397.11536215 572.73654554 433.28502857 591.70849609 470.57861328 C593.44507213 473.99018302 595.20490138 477.38948533 596.96484375 480.7890625 C611.98603741 510.04473891 624.96042284 540.39721331 636.5390625 571.16796875 C636.96670898 572.28913086 637.39435547 573.41029297 637.83496094 574.56542969 C651.61049986 610.7402189 663.17716802 647.61230502 672.5390625 685.16796875 C672.74059937 685.97518372 672.94213623 686.78239868 673.14978027 687.61407471 C679.7730858 714.24871734 685.05106935 741.09537788 689.5390625 768.16796875 C689.67378967 768.97194092 689.80851685 769.77591309 689.94732666 770.60424805 C696.44383057 809.52851713 699.46595571 849.01742604 702.92913628 888.3021574 C703.33449661 892.89338601 703.75229366 897.48312077 704.18603516 902.07177734 C709.64231492 960.24222154 709.4870231 1021.40837375 703.79229736 1079.55895996 C703.52443059 1082.31871726 703.2707217 1085.07954177 703.01904297 1087.84082031 C696.18455352 1162.12842968 682.306116 1235.77934387 660.5390625 1307.16796875 C660.31045532 1307.91999573 660.08184814 1308.67202271 659.84631348 1309.44683838 C649.77803105 1342.52279345 638.59165187 1375.14230236 625.5390625 1407.16796875 C625.04325684 1408.38484375 624.54745117 1409.60171875 624.03662109 1410.85546875 C603.14192569 1461.96570524 579.32151559 1512.05020522 551.09423828 1559.53369141 C549.17187714 1562.78993578 547.29662044 1566.07167079 545.42358398 1569.35644531 C534.20951126 1588.96398742 521.86707724 1607.81357205 509.3515625 1626.60546875 C508.75868439 1627.49662384 508.16580627 1628.38777893 507.55496216 1629.30593872 C497.49793729 1644.40772872 487.21592633 1659.33701759 476.4140625 1673.91796875 C475.82842529 1674.71033936 475.24278809 1675.50270996 474.6394043 1676.3190918 C469.68826793 1683.00078821 464.65502862 1689.61158499 459.5390625 1696.16796875 C458.90436035 1696.98394531 458.90436035 1696.98394531 458.25683594 1697.81640625 C451.29425279 1706.76314522 444.18344804 1715.58448073 437.01123047 1724.36376953 C435.71634739 1725.95069921 434.42615772 1727.54145612 433.13671875 1729.1328125 C424.87635838 1739.30515502 416.34885624 1749.24541429 407.54296875 1758.94921875 C405.72594268 1760.96105268 403.93961858 1762.99457309 402.1640625 1765.04296875 C398.3308108 1769.44149259 394.3819789 1773.73228241 390.4296875 1778.0234375 C388.53519799 1780.08047574 386.64998722 1782.14533607 384.7734375 1784.21875 C379.42108737 1790.12084222 373.94624027 1795.83826773 368.2421875 1801.40234375 C366.14084653 1803.55227064 364.16843173 1805.71955928 362.20703125 1807.9921875 C358.51283255 1812.2541072 354.60003846 1816.25512765 350.6015625 1820.23046875 C349.93705078 1820.89884766 349.27253906 1821.56722656 348.58789062 1822.25585938 C344.64936817 1826.18674164 340.59281288 1829.90988825 336.38061523 1833.54467773 C333.80942178 1835.8111321 331.43395678 1838.21536618 329.0390625 1840.66796875 C325.42498392 1844.33097829 321.73644622 1847.82962525 317.8203125 1851.16796875 C315.34604966 1853.33718548 312.94961973 1855.57696189 310.55126953 1857.8293457 C304.92436686 1863.11369543 299.21241206 1868.16383668 293.18359375 1872.9921875 C290.38067002 1875.29828575 287.70902975 1877.70948406 285.0390625 1880.16796875 C279.70931857 1885.06171106 274.17135999 1889.62904191 268.5390625 1894.16796875 C267.32078687 1895.1656568 266.10338943 1896.16441786 264.88671875 1897.1640625 C255.94510526 1904.49768085 246.85964845 1911.61492725 237.6328125 1918.5859375 C235.58847876 1920.13062997 233.54804724 1921.68036853 231.5078125 1923.23046875 C222.73705435 1929.87318668 213.81999799 1936.28242783 204.80029297 1942.58203125 C202.45711359 1944.22544447 200.12436889 1945.88289436 197.79296875 1947.54296875 C186.50507057 1955.55529548 174.99506094 1963.13484069 163.25634766 1970.46972656 C160.63164156 1972.11010892 158.01284665 1973.75959912 155.39453125 1975.41015625 C106.12349569 2006.3380057 53.93732957 2033.00472126 -0.6484375 2053.23046875 C-1.52636963 2053.55909912 -2.40430176 2053.88772949 -3.30883789 2054.22631836 C-9.08773825 2056.2923685 -9.08773825 2056.2923685 -12.4609375 2055.16796875 C-11.93886719 2054.53632813 -11.41679688 2053.9046875 -10.87890625 2053.25390625 C-4.62180025 2045.64894729 1.50283976 2037.9489104 7.5390625 2030.16796875 C8.1470166 2029.38599121 8.7549707 2028.60401367 9.38134766 2027.79833984 C17.81338632 2016.92771607 25.91586006 2005.9172022 33.59765625 1994.50390625 C35.76577939 1991.28569697 37.99352307 1988.12374575 40.2824707 1984.99072266 C79.96806145 1930.64312772 110.22670092 1868.24637585 132.85742188 1805.06573486 C133.85700405 1802.2827828 134.87156177 1799.50529211 135.8828125 1796.7265625 C140.8021037 1783.06326852 144.9012181 1769.2245995 148.5390625 1755.16796875 C148.96203613 1753.54133301 148.96203613 1753.54133301 149.39355469 1751.88183594 C158.07335194 1717.96431579 164.11120944 1683.09990096 166.5390625 1648.16796875 C166.62453339 1646.97162308 166.71000427 1645.7752774 166.79806519 1644.54267883 C167.4177112 1635.36844915 167.69905079 1626.24530998 167.70703125 1617.046875 C167.71026478 1615.64989695 167.71363018 1614.25291921 167.71711731 1612.85594177 C167.7230406 1609.94928202 167.7249645 1607.04265167 167.72436523 1604.13598633 C167.72428436 1601.21502437 167.7311767 1598.29422056 167.74487305 1595.37329102 C167.82456764 1578.11277102 167.49121712 1561.03596812 165.79891968 1543.83786011 C165.44377069 1540.18889717 165.13185811 1536.53657388 164.81942749 1532.88374329 C162.48480816 1506.4607513 157.1979411 1480.63362943 151.15966797 1454.83544922 C150.53681888 1452.15832524 149.92951205 1449.47801706 149.32421875 1446.796875 C146.99191464 1436.58556919 144.24422537 1426.622533 140.98828125 1416.66796875 C139.87472455 1413.25720456 138.86167563 1409.83253396 137.90063477 1406.3762207 C128.30057075 1372.13784211 114.0229157 1338.96961552 98.82617188 1306.89355469 C97.6586022 1304.4211063 96.50837597 1301.94173899 95.3671875 1299.45703125 C82.94008059 1272.47917855 68.13069828 1246.42759383 52.5390625 1221.16796875 C52.08031738 1220.42272949 51.62157227 1219.67749023 51.14892578 1218.90966797 C26.77231694 1179.44890625 -0.21041748 1141.60981484 -29.5703125 1105.7109375 C-31.93410953 1102.82040821 -34.26711567 1099.90727435 -36.5859375 1096.98046875 C-40.93999313 1091.52423586 -45.45542091 1086.20709362 -49.98583984 1080.89746094 C-51.48642988 1079.13807997 -52.98349058 1077.37573576 -54.48046875 1075.61328125 C-59.96104894 1069.17516025 -65.52302081 1062.8370047 -71.23828125 1056.60546875 C-73.13515514 1054.5252415 -74.99486693 1052.42239977 -76.8359375 1050.29296875 C-81.37713238 1045.07429958 -86.09834875 1040.02140751 -90.80761719 1034.95507812 C-92.46422716 1033.16441288 -94.10804905 1031.3627007 -95.75 1029.55859375 C-102.16998648 1022.54011813 -108.79784147 1015.88378536 -115.78759766 1009.43457031 C-125.76433891 1000.14459396 -135.28984481 990.38502305 -144.88598633 980.70556641 C-145.93813324 979.64712776 -145.93813324 979.64712776 -147.01153564 978.56730652 C-148.32913146 977.24170629 -149.64461312 975.91399957 -150.9574585 974.58369446 C-154.75187633 970.76880768 -158.66989942 967.16129453 -162.75144958 963.65480042 C-164.75260417 961.91429089 -166.61912919 960.07555592 -168.4609375 958.16796875 C-171.58939714 954.99706877 -174.82949102 952.04226915 -178.20703125 949.140625 C-180.42052008 947.20334275 -182.58284321 945.21698091 -184.73901367 943.21630859 C-189.02238604 939.24302922 -193.34039326 935.39152178 -197.8984375 931.73046875 C-202.08334337 928.36447971 -206.04379791 924.83593522 -209.9609375 921.16796875 C-214.71307376 916.72334417 -219.58452499 912.51416476 -224.66015625 908.4375 C-227.74289098 905.93949598 -230.75795741 903.37121326 -233.7734375 900.79296875 C-238.73598729 896.56495859 -243.80494317 892.5014991 -248.95288086 888.50219727 C-253.65710658 884.83461605 -258.25091545 881.04551092 -262.8359375 877.23046875 C-268.88958334 872.20699877 -275.05241717 867.38453913 -281.375 862.70507812 C-286.4283569 858.96203392 -291.38984563 855.11382574 -296.3359375 851.23046875 C-304.47803717 844.85827669 -312.80487905 838.77785102 -321.21972656 832.77246094 C-324.19175533 830.64477324 -327.14836101 828.4961605 -330.10571289 826.34814453 C-357.60854316 806.39918412 -385.85679208 787.49941798 -414.4609375 769.16796875 C-415.1921582 768.69842773 -415.92337891 768.22888672 -416.67675781 767.74511719 C-439.86690645 752.88432548 -463.51214211 738.76792561 -487.4609375 725.16796875 C-488.48751465 724.58450684 -489.5140918 724.00104492 -490.57177734 723.39990234 C-497.84280769 719.2763947 -505.14152857 715.20493309 -512.4609375 711.16796875 C-513.46560059 710.61270508 -514.47026367 710.05744141 -515.50537109 709.48535156 C-550.31148528 690.33060695 -585.98317821 672.61694723 -622.51495361 657.00006104 C-624.432729 656.18003055 -626.34909957 655.3567975 -628.26513672 654.53271484 C-639.61753805 649.65831443 -651.01072538 644.91440953 -662.50390625 640.3828125 C-666.27266567 638.83448465 -669.86314656 637.07700068 -673.4609375 635.16796875 C-665.39477435 582.2747793 -639.05244359 526.85070418 -617.4609375 478.16796875 C-616.44001012 475.83988499 -615.41917917 473.51175894 -614.3984375 471.18359375 C-594.41426318 425.86741093 -571.41958981 382.33908868 -545.4609375 340.16796875 C-544.93274414 339.30929199 -544.40455078 338.45061523 -543.86035156 337.56591797 C-538.56851673 328.9816684 -533.1326563 320.50749602 -527.4609375 312.16796875 C-526.86442383 311.2877002 -526.86442383 311.2877002 -526.25585938 310.38964844 C-515.79450669 294.96913543 -504.94357154 279.8452943 -493.4609375 265.16796875 C-492.56874335 264.01713408 -491.67682387 262.86608643 -490.78515625 261.71484375 C-485.80413502 255.30549345 -480.71375254 249.01326982 -475.43676758 242.8449707 C-472.62986216 239.56334972 -469.90283023 236.23293715 -467.2109375 232.85546875 C-462.76740717 227.38896741 -457.97791297 222.28036528 -453.12792969 217.17651367 C-449.80297852 213.67747896 -446.54023728 210.14097591 -443.33984375 206.52734375 C-437.9949032 200.56541635 -432.35601989 194.91242645 -426.68579102 189.26245117 C-424.894178 187.47622205 -423.10800695 185.68467528 -421.32226562 183.89257812 C-416.07072919 178.63798998 -410.82165875 173.4454505 -405.1628418 168.62475586 C-402.41005407 166.26843907 -399.79095878 163.77124435 -397.1484375 161.29296875 C-391.44614486 155.9942762 -385.53454089 151.03801032 -379.4609375 146.16796875 C-378.27997653 145.19685909 -377.10037001 144.22410076 -375.921875 143.25 C-346.26548973 118.79901501 -314.52111637 96.74773966 -280.72070312 78.39941406 C-278.03794529 76.93746176 -275.36749674 75.45384435 -272.6953125 73.97265625 C-193.74070492 30.50912391 -104.46106964 5.23734708 0 0 Z " fill="#652D91" transform="translate(1693.4609375,213.83203125)"/>
<path d="M0 0 C3.93461771 0.00008063 7.86911743 -0.00677436 11.80371094 -0.02050781 C46.29382071 -0.13884059 80.64230677 0.89425001 115.01000977 3.93530273 C115.96184143 4.01800415 116.9136731 4.10070557 117.89434814 4.18591309 C218.69670658 13.01822943 317.73204708 34.18796978 602.44555664 151.6784668 C605.71456789 153.599291 609.01502317 155.45657187 612.32250977 157.31030273 C638.66279239 172.32553631 663.92612918 189.7892482 688.01000977 208.18530273 C688.79819092 208.7842334 688.79819092 208.7842334 689.60229492 209.39526367 C701.34962412 218.32337326 712.69139742 227.72349591 724.01000977 237.18530273 C720.21950704 238.44880364 718.70759838 237.73300786 714.88500977 236.62280273 C713.50941004 236.24006104 712.13305061 235.86004346 710.75610352 235.48217773 C709.99539551 235.27270508 709.2346875 235.06323242 708.45092773 234.84741211 C681.33241082 227.49139912 653.53248665 222.21081946 625.63500977 218.87280273 C624.42917236 218.72568848 623.22333496 218.57857422 621.98095703 218.42700195 C597.45975044 215.69300813 572.85218277 214.84214216 548.19824219 214.92456055 C544.74115638 214.93603363 541.28437594 214.92909748 537.82730007 214.91769218 C514.46340534 214.85214737 491.46095752 216.30040629 468.32250977 219.56030273 C467.53506378 219.66923859 466.7476178 219.77817444 465.93630981 219.89041138 C453.22496191 221.65026227 440.58903844 223.63368482 428.01000977 226.18530273 C426.98842773 226.38704102 425.9668457 226.5887793 424.91430664 226.79663086 C341.72961083 243.31522783 263.53403472 277.63874153 167.61352539 344.92895508 C165.9441903 346.23687201 164.26680575 347.53392648 162.58813477 348.82983398 C154.1655381 355.35649581 146.04276771 362.18638559 138.01000977 369.18530273 C136.86918945 370.17336914 136.86918945 370.17336914 135.70532227 371.18139648 C130.41352301 375.78249905 125.20570072 380.47623989 120.01000977 385.18530273 C118.6990332 386.35512695 118.6990332 386.35512695 117.36157227 387.54858398 C109.38057228 394.76999818 101.75231508 402.3346679 94.13500977 409.93530273 C93.58908173 410.47864258 93.04315369 411.02198242 92.48068237 411.58178711 C86.97545328 417.0664446 81.52899359 422.56062135 76.47729492 428.47290039 C74.26882534 431.05030566 71.94841244 433.51419475 69.63500977 435.99780273 C65.36605782 440.61829823 61.32969682 445.37637025 57.38500977 450.27905273 C55.17229697 452.98671444 52.90881142 455.63695183 50.61791992 458.27807617 C44.98903443 464.76952389 39.60836433 471.40475352 34.44702148 478.27563477 C32.82037131 480.43731633 31.18263953 482.59040307 29.54516602 484.74389648 C7.32478296 514.06213464 -12.97691573 544.72461684 -31.45043945 576.53540039 C-32.44088023 578.24016477 -33.43444569 579.94311961 -34.43188477 581.64379883 C-63.33104259 630.91992448 -87.64457779 682.87734355 -108.20275879 736.14654541 C-109.03209881 738.29435473 -109.86509065 740.44073001 -110.69799805 742.5871582 C-118.50948759 762.76456485 -125.77910878 783.09407715 -132.61499023 803.62280273 C-132.9508313 804.63010437 -133.28667236 805.63740601 -133.63269043 806.67523193 C-136.83987679 816.3195048 -139.99136005 825.97790396 -142.88842773 835.72045898 C-143.09029694 836.39443222 -143.29216614 837.06840546 -143.50015259 837.76280212 C-144.60447366 841.54683155 -145.4224361 845.28496549 -145.98999023 849.18530273 C-144.00999023 849.84530273 -142.02999023 850.50530273 -139.98999023 851.18530273 C-140.60446109 857.28052079 -141.8616722 862.92920508 -143.50952148 868.82202148 C-144.0371981 870.75358595 -144.5642691 872.68531594 -145.09082031 874.6171875 C-145.50891464 876.14244553 -145.50891464 876.14244553 -145.93545532 877.69851685 C-153.48500599 905.33804073 -159.95575763 933.17987286 -165.98999023 961.18530273 C-166.27909271 962.52189941 -166.27909271 962.52189941 -166.57403564 963.88549805 C-177.28366918 1013.50249144 -184.98200396 1063.79801939 -190.98999023 1114.18530273 C-191.1090271 1115.18333923 -191.22806396 1116.18137573 -191.35070801 1117.20965576 C-196.81858795 1163.36532882 -200.29860979 1209.73936615 -201.98999023 1256.18530273 C-202.03382843 1257.37944794 -202.03382843 1257.37944794 -202.07855225 1258.59771729 C-204.94860419 1337.90688675 -202.53313586 1417.7701616 -191.56469727 1496.42480469 C-191.40721512 1497.56084389 -191.40721512 1497.56084389 -191.24655151 1498.71983337 C-190.96336256 1500.75101561 -190.67464279 1502.78142461 -190.38549805 1504.81176758 C-190.05263942 1507.65092838 -189.90687746 1510.33289942 -189.98999023 1513.18530273 C-195.31350032 1515.29180515 -200.45641165 1516.8951292 -206.05639648 1518.05249023 C-206.80303558 1518.21214264 -207.54967468 1518.37179504 -208.31893921 1518.5362854 C-210.72890229 1519.05025147 -213.14058399 1519.55554134 -215.55249023 1520.06030273 C-217.24539208 1520.41849715 -218.93818097 1520.77722581 -220.63085938 1521.13647461 C-223.14847095 1521.67078181 -225.66615466 1522.20469922 -228.18437195 1522.73614502 C-232.43797704 1523.63526052 -236.68386516 1524.55653773 -240.91967773 1525.53686523 C-260.06574531 1529.95179666 -279.4891403 1533.0368018 -298.85522461 1536.31323242 C-302.89768398 1536.99761467 -306.9366708 1537.69984438 -310.97436523 1538.41186523 C-347.75693037 1544.77504154 -385.1813766 1547.45875871 -422.38323975 1550.00326538 C-424.64782383 1550.16140821 -426.91085835 1550.33239018 -429.17407227 1550.50878906 C-443.92056477 1551.55439527 -458.71415334 1551.38756851 -473.48999023 1551.37280273 C-474.58946299 1551.37196056 -474.58946299 1551.37196056 -475.71114731 1551.37110138 C-544.48862212 1551.30523616 -613.12101185 1545.29423267 -679.8190918 1527.74389648 C-682.41975779 1527.07471927 -685.02880941 1526.44366369 -687.63842773 1525.81030273 C-728.18274316 1515.82896724 -767.38993054 1501.31042126 -804.98999023 1483.18530273 C-805.71025391 1482.83838379 -806.43051758 1482.49146484 -807.17260742 1482.1340332 C-811.07548436 1480.24084663 -814.9483811 1478.29456731 -818.80493164 1476.30883789 C-820.39365947 1475.49193002 -821.98480908 1474.67972675 -823.57739258 1473.87036133 C-860.21157452 1455.24335272 -895.46859147 1432.62742397 -926.98999023 1406.18530273 C-928.84330447 1404.68424965 -930.69748755 1403.18426874 -932.55249023 1401.68530273 C-937.04490092 1398.01202106 -941.37965704 1394.19751447 -945.66967773 1390.29077148 C-947.69153207 1388.45612588 -949.73677546 1386.65761487 -951.80249023 1384.87280273 C-961.84285144 1376.07760443 -971.41746915 1366.8601966 -980.86499023 1357.43530273 C-981.3629007 1356.93998047 -981.86081116 1356.4446582 -982.37380981 1355.93432617 C-988.13408883 1350.19765729 -993.70741553 1344.36711532 -998.98999023 1338.18530273 C-1000.44444541 1336.57761901 -1001.90219918 1334.97290559 -1003.36499023 1333.37280273 C-1007.28693219 1329.02614964 -1011.01784535 1324.55476861 -1014.69702148 1320.00170898 C-1016.96496411 1317.21604181 -1019.28715575 1314.48348921 -1021.61499023 1311.74780273 C-1037.29601761 1292.95488155 -1051.70539208 1272.73902271 -1064.98999023 1252.18530273 C-1065.44696289 1251.47857422 -1065.90393555 1250.7718457 -1066.37475586 1250.04370117 C-1079.11962349 1230.25380184 -1090.91999303 1209.95566274 -1101.98999023 1189.18530273 C-1102.48354004 1188.26136719 -1102.97708984 1187.33743164 -1103.4855957 1186.38549805 C-1120.79759033 1153.87973527 -1135.93492561 1120.38377565 -1148.9206543 1085.92456055 C-1149.91076559 1083.28179707 -1149.91076559 1083.28179707 -1150.95776367 1081.18823242 C-1156.17637703 1070.01418865 -1152.74538826 1054.05902204 -1151.42749023 1042.12280273 C-1151.34107269 1041.32317108 -1151.25465515 1040.52353943 -1151.1656189 1039.69967651 C-1141.4416094 950.40232589 -1120.98685138 861.74314034 -1089.72637939 770.32415771 C-1088.98960107 768.18417241 -1088.25753608 766.04262576 -1087.52661133 763.90063477 C-1066.00210267 700.91231147 -1039.05039946 638.93523663 -1006.47924805 580.84741211 C-1004.85319066 577.94076788 -1003.24538446 575.02442225 -1001.63842773 572.10717773 C-993.78637307 557.90245573 -985.57263521 543.96021753 -976.98999023 530.18530273 C-976.43907715 529.29842773 -975.88816406 528.41155273 -975.32055664 527.49780273 C-961.88023735 505.92349262 -947.63742519 484.79961752 -932.56567383 464.33032227 C-930.88133616 462.03738909 -929.21060045 459.73491368 -927.54077148 457.43139648 C-920.96336333 448.38950042 -914.18325971 439.57872423 -907.07202148 430.95092773 C-904.14278784 427.39315408 -901.31163056 423.76603078 -898.48999023 420.12280273 C-892.60848984 412.56303636 -886.31881538 405.37113291 -879.98999023 398.18530273 C-878.80211912 396.8314616 -877.61453804 395.4773658 -876.42749023 394.12280273 C-875.90799805 393.53241211 -875.38850586 392.94202148 -874.85327148 392.33374023 C-873.29519956 390.53722124 -871.75484968 388.72854283 -870.22045898 386.91186523 C-865.09283854 380.85410688 -859.97080915 374.92947727 -854.22045898 369.44311523 C-852.34338617 367.54303102 -850.61775594 365.60935647 -848.8815918 363.58349609 C-844.93153173 359.05529974 -840.74730921 354.79830027 -836.49389648 350.55639648 C-835.30533302 349.36639793 -835.30533302 349.36639793 -834.09275818 348.15235901 C-832.42748741 346.48641193 -830.76096995 344.82171017 -829.09326172 343.15820312 C-826.55964402 340.62994139 -824.03140856 338.09638613 -821.50366211 335.56225586 C-819.87572741 333.93498204 -818.24748249 332.30801848 -816.61889648 330.68139648 C-815.87281631 329.93329208 -815.12673615 329.18518768 -814.35804749 328.41441345 C-810.29506338 324.36927734 -806.14875162 320.48475061 -801.79559326 316.75279236 C-798.66598534 314.03590062 -795.68487172 311.16081216 -792.67749023 308.31030273 C-787.45532389 303.39490211 -782.14099792 298.74010177 -776.53686523 294.26342773 C-773.91990693 292.1281182 -771.42156245 289.8999991 -768.92749023 287.62280273 C-764.99481891 284.04764698 -760.95763558 280.67639008 -756.78295898 277.38842773 C-754.75261688 275.78687117 -752.73594154 274.1741249 -750.72827148 272.54467773 C-731.48907511 256.9609818 -711.4748865 242.29469187 -691.02368164 228.34399414 C-685.99966407 224.90663892 -681.04590935 221.37974295 -676.11499023 217.81030273 C-675.3524292 217.25906738 -674.58986816 216.70783203 -673.80419922 216.13989258 C-670.21415771 213.53964482 -666.63525402 210.92645654 -663.07983398 208.27905273 C-640.65668787 191.68631165 -616.92109822 176.50157407 -592.98999023 162.18530273 C-591.37229736 161.21633057 -591.37229736 161.21633057 -589.72192383 160.2277832 C-573.7095661 150.65803448 -557.52138956 141.48780023 -541.01879883 132.78344727 C-538.14670525 131.26799308 -535.28086799 129.74127563 -532.41577148 128.21264648 C-484.74235744 102.90899977 -435.02087866 81.7240741 -383.98999023 64.18530273 C-382.97772369 63.83692352 -382.97772369 63.83692352 -381.94500732 63.48150635 C-329.53999423 45.46638792 -275.74405965 30.27511623 -221.1383667 20.56890869 C-218.85686477 20.16153236 -216.57694211 19.74601123 -214.29711914 19.3293457 C-163.6155192 10.09868715 -112.43501837 3.99370788 -60.98999023 1.18530273 C-60.29445038 1.14293488 -59.59891052 1.10056702 -58.8822937 1.05691528 C-39.27398123 -0.11760021 -19.63531182 -0.00212322 0 0 Z " fill="#00ABD1" transform="translate(1166.989990234375,-0.185302734375)"/>
</svg>
