<?xml version="1.0" encoding="UTF-8"?>
<svg version="1.1" xmlns="http://www.w3.org/2000/svg" width="980" height="980">
<path d="M0 0 C4.23159757 0.01709079 8.46262887 0.00691112 12.69420719 -0.01031685 C33.02329914 -0.08053034 52.90643647 0.64745088 73.08007812 3.39111328 C73.92048645 3.50453064 74.76089478 3.617948 75.62677002 3.73480225 C80.32003677 4.38713234 84.98088067 5.16351893 89.64257812 6.01611328 C90.32910461 6.14016541 91.0156311 6.26421753 91.72296143 6.39202881 C139.49660475 15.08563063 184.65135919 30.73763854 228.08007812 52.39111328 C228.9938623 52.84599121 229.90764648 53.30086914 230.84912109 53.76953125 C252.37049543 64.56374081 272.61627609 77.23809045 292.08007812 91.39111328 C292.67353027 91.82262695 293.26698242 92.25414063 293.87841797 92.69873047 C297.31741332 95.21395589 300.7073889 97.78787638 304.08007812 100.39111328 C304.91829102 101.0342749 304.91829102 101.0342749 305.7734375 101.69042969 C313.50418064 107.63180508 320.89720125 113.78994826 328.08007812 120.39111328 C329.36789994 121.52051257 330.65943234 122.64569828 331.95507812 123.76611328 C340.53880278 131.27473922 348.81476641 139.0297543 356.89257812 147.07861328 C357.59761475 147.77905762 358.30265137 148.47950195 359.02905273 149.20117188 C363.5836042 153.76914909 367.87375553 158.50291973 372.08007812 163.39111328 C373.1017952 164.54758344 374.12518414 165.70257909 375.15039062 166.85595703 C383.2526218 176.03761026 390.76502829 185.57445988 398.08007812 195.39111328 C398.56750488 196.04112305 399.05493164 196.69113281 399.55712891 197.36083984 C446.0990366 259.49071867 476.86664116 332.31723365 489.89257812 408.76611328 C490.16666504 410.36314087 490.16666504 410.36314087 490.44628906 411.99243164 C491.0539165 415.78448735 491.57656875 419.58424114 492.08007812 423.39111328 C492.26799927 424.74976501 492.26799927 424.74976501 492.4597168 426.13586426 C495.12890306 445.8873651 495.55192639 465.39747177 495.47119141 485.29052734 C495.45410056 489.53902801 495.4642774 493.78696469 495.48150826 498.03544617 C495.55031062 518.02581856 494.85321047 537.55762308 492.08007812 557.39111328 C491.90995209 558.64504883 491.90995209 558.64504883 491.73638916 559.92431641 C491.070652 564.76548693 490.29740584 569.57751271 489.45507812 574.39111328 C489.331026 575.10381378 489.20697388 575.81651428 489.0791626 576.55081177 C480.50743847 625.32686312 464.11982042 671.11231276 442.08007812 715.39111328 C441.66967285 716.22126953 441.25926758 717.05142578 440.83642578 717.90673828 C425.15004679 749.42298913 404.69983429 778.48672754 382.08007812 805.39111328 C381.64405273 805.91205566 381.20802734 806.43299805 380.75878906 806.96972656 C370.2811034 819.46067149 359.20376255 831.33587795 347.70507812 842.89111328 C347.06344727 843.53741699 346.42181641 844.1837207 345.76074219 844.84960938 C341.36379421 849.2318025 336.78337774 853.34193049 332.08007812 857.39111328 C330.88891999 858.4367889 329.69878551 859.48363194 328.50976562 860.53173828 C304.90503962 881.22737328 279.29071941 899.71368812 252.08007812 915.39111328 C251.42700684 915.76913086 250.77393555 916.14714844 250.10107422 916.53662109 C200.24213969 945.24219575 146.22151686 964.55512384 89.64257812 974.76611328 C87.78354858 975.10606323 87.78354858 975.10606323 85.88696289 975.45288086 C81.62624035 976.18018787 77.36330166 976.81307058 73.08007812 977.39111328 C72.11463074 977.52241638 71.14918335 977.65371948 70.15447998 977.78900146 C50.12890386 980.41152141 30.32582088 980.86432677 10.16015625 980.78222656 C5.92855868 980.76513578 1.69752738 980.77531544 -2.53405094 980.79254341 C-22.86314289 980.8627569 -42.74628022 980.13477568 -62.91992188 977.39111328 C-64.18053436 977.22098724 -64.18053436 977.22098724 -65.46661377 977.04742432 C-70.15988052 976.39509422 -74.82072442 975.61870763 -79.48242188 974.76611328 C-80.16894836 974.64206116 -80.85547485 974.51800903 -81.56280518 974.39019775 C-129.3364485 965.69659593 -174.49120294 950.04458802 -217.91992188 928.39111328 C-218.83370605 927.93623535 -219.74749023 927.48135742 -220.68896484 927.01269531 C-242.21033918 916.21848576 -262.45611984 903.54413611 -281.91992188 889.39111328 C-282.51337402 888.95959961 -283.10682617 888.52808594 -283.71826172 888.08349609 C-287.15725707 885.56827068 -290.54723265 882.99435018 -293.91992188 880.39111328 C-294.47873047 879.96233887 -295.03753906 879.53356445 -295.61328125 879.09179688 C-303.34402439 873.15042149 -310.737045 866.9922783 -317.91992188 860.39111328 C-319.20774369 859.26171399 -320.49927609 858.13652828 -321.79492188 857.01611328 C-330.37864653 849.50748734 -338.65461016 841.75247227 -346.73242188 833.70361328 C-347.4374585 833.00316895 -348.14249512 832.30272461 -348.86889648 831.58105469 C-353.42344795 827.01307747 -357.71359928 822.27930683 -361.91992188 817.39111328 C-362.94163895 816.23464313 -363.96502789 815.07964747 -364.99023438 813.92626953 C-373.09246555 804.74461631 -380.60487204 795.20776668 -387.91992188 785.39111328 C-388.40734863 784.74110352 -388.89477539 784.09109375 -389.39697266 783.42138672 C-435.93888035 721.29150789 -466.70648491 648.46499291 -479.73242188 572.01611328 C-479.91514648 570.95142822 -480.09787109 569.88674316 -480.28613281 568.78979492 C-480.89376025 564.99773922 -481.4164125 561.19798542 -481.91992188 557.39111328 C-482.04520264 556.48534546 -482.1704834 555.57957764 -482.29956055 554.6463623 C-484.96874681 534.89486147 -485.39177014 515.3847548 -485.31103516 495.49169922 C-485.29394431 491.24319856 -485.30412115 486.99526188 -485.32135201 482.7467804 C-485.39015437 462.756408 -484.69305422 443.22460348 -481.91992188 423.39111328 C-481.80650452 422.55515625 -481.69308716 421.71919922 -481.57623291 420.85791016 C-480.91049575 416.01673963 -480.13724959 411.20471386 -479.29492188 406.39111328 C-479.10884369 405.32206253 -479.10884369 405.32206253 -478.91900635 404.23141479 C-470.34728222 355.45536345 -453.95966417 309.6699138 -431.91992188 265.39111328 C-431.5095166 264.56095703 -431.09911133 263.73080078 -430.67626953 262.87548828 C-414.98989054 231.35923743 -394.53967804 202.29549902 -371.91992188 175.39111328 C-371.26588379 174.60969971 -371.26588379 174.60969971 -370.59863281 173.8125 C-360.12094715 161.32155507 -349.0436063 149.44634861 -337.54492188 137.89111328 C-336.90329102 137.24480957 -336.26166016 136.59850586 -335.60058594 135.93261719 C-331.20363796 131.55042407 -326.62322149 127.44029607 -321.91992188 123.39111328 C-320.72876374 122.34543766 -319.53862926 121.29859462 -318.34960938 120.25048828 C-294.74488337 99.55485328 -269.13056316 81.06853844 -241.91992188 65.39111328 C-240.94031494 64.82408691 -240.94031494 64.82408691 -239.94091797 64.24560547 C-190.08198344 35.54003081 -136.06136061 16.22710272 -79.48242188 6.01611328 C-78.24306885 5.78947998 -77.00371582 5.56284668 -75.72680664 5.3293457 C-71.4660841 4.6020387 -67.20314541 3.96915598 -62.91992188 3.39111328 C-61.95447449 3.25981018 -60.9890271 3.12850708 -59.99432373 2.9932251 C-39.96874761 0.37070515 -20.16566463 -0.08210021 0 0 Z " fill="#28A7E7" transform="translate(484.919921875,-0.39111328125)"/>
<path d="M0 0 C5.54400878 3.55291501 9.84172652 7.69282032 12.43359375 13.83203125 C14.40958743 29.76829201 9.96924083 47.17361896 7.12817383 62.79174805 C4.94329157 75.124444 3.32381849 87.54487761 1.62768555 99.95214844 C1.38465461 101.72852271 1.14157229 103.50488994 0.8984375 105.28125 C0.77914886 106.15442871 0.65986023 107.02760742 0.53695679 107.92724609 C-0.31357899 114.11067191 -1.22781369 120.2827492 -2.16796875 126.453125 C-3.21829991 133.35944679 -4.1284971 140.26113215 -4.87890625 147.20703125 C-6.18022211 158.58520325 -7.94395521 169.86853787 -9.76617432 181.17175293 C-12.17293503 196.11480701 -14.36475249 211.08229622 -16.47387695 226.07006836 C-16.58980698 226.89341675 -16.705737 227.71676514 -16.82518005 228.56506348 C-17.05459713 230.19441848 -17.28373751 231.82381246 -17.5125885 233.45324707 C-18.49145386 240.38727292 -19.53075935 247.31175627 -20.59892273 254.23257446 C-21.22357486 258.32641111 -21.75480188 262.38738635 -22.06640625 266.51953125 C-22.40297295 270.85204744 -23.11427674 275.07180126 -23.90625 279.33984375 C-25.74843919 289.52873942 -27.19203485 299.76703658 -28.62890625 310.01953125 C-28.88710101 311.8470432 -29.14556366 313.67451733 -29.40429688 315.50195312 C-29.90180201 319.01846128 -30.39808765 322.53513731 -30.89306641 326.05200195 C-32.35070393 336.40539084 -33.83726343 346.75308882 -35.421875 357.08789062 C-36.15252918 361.90785124 -36.82270012 366.73278973 -37.45703125 371.56640625 C-38.59978341 380.19785074 -39.84511983 388.81360711 -41.09765625 397.4296875 C-41.3367076 399.07863753 -41.57567887 400.72759916 -41.8145752 402.37657166 C-42.43775749 406.67671273 -43.06192374 410.97671037 -43.68634033 415.27667236 C-44.44172843 420.47971569 -45.19603412 425.68291602 -45.95040131 430.88610744 C-46.53793409 434.93852898 -47.12564566 438.99092424 -47.71398926 443.04322815 C-48.23481536 446.63118394 -48.75470961 450.21927325 -49.2735939 453.80751038 C-49.46896405 455.15831046 -49.66454903 456.50907948 -49.86034775 457.8598175 C-50.13746021 459.77303172 -50.41323934 461.68643892 -50.68896484 463.59985352 C-50.84513275 464.68154312 -51.00130066 465.76323273 -51.16220093 466.87770081 C-51.5327598 469.58610987 -51.85085133 472.29323901 -52.13671875 475.01171875 C-53.90063545 490.7043825 -59.02114479 505.40866861 -71.56640625 515.83203125 C-86.29922605 525.94429713 -100.9365638 528.75448098 -118.5390625 526.44140625 C-129.28457266 523.64290945 -139.10238165 516.25990318 -148.19726562 510.10058594 C-154.31361781 505.96450286 -160.5285932 501.98920759 -166.75390625 498.01953125 C-174.54401367 493.04872302 -182.32269945 488.06236938 -190.06640625 483.01953125 C-190.88302734 482.48779297 -191.69964844 481.95605469 -192.54101562 481.40820312 C-194.13110703 480.37252616 -195.72111606 479.33672272 -197.31103516 478.30078125 C-207.80153293 471.46912563 -218.33047239 464.6988529 -228.87890625 457.95703125 C-239.05457917 451.45294545 -249.19268773 444.89357941 -259.31103516 438.30078125 C-267.77282709 432.79026596 -276.25207353 427.30745284 -284.76171875 421.87109375 C-285.85460205 421.17282471 -286.94748535 420.47455566 -288.07348633 419.75512695 C-290.21060382 418.39052242 -292.34841502 417.02700343 -294.48706055 415.66479492 C-327.60849174 394.52215263 -327.60849174 394.52215263 -334.56640625 375.83203125 C-334.82953613 375.16155762 -335.09266602 374.49108398 -335.36376953 373.80029297 C-337.49331768 368.01163492 -338.11075432 362.7918557 -338.06640625 356.64453125 C-338.06141113 355.72833008 -338.05641602 354.81212891 -338.05126953 353.86816406 C-337.40219366 328.36172046 -317.09416132 312.20715704 -300.3125 295.51220703 C-298.5687351 293.77364229 -296.82521654 292.03483045 -295.08192444 290.29579163 C-291.34452533 286.56828989 -287.60569362 282.84223401 -283.86572266 279.11731339 C-277.95486435 273.22994849 -272.04929617 267.3372925 -266.14453125 261.44381714 C-264.11999119 259.42327696 -262.09541671 257.40277127 -260.0708313 255.38227654 C-259.5651138 254.87757827 -259.05939631 254.37288 -258.53835404 253.85288785 C-252.79972893 248.12597307 -247.06001548 242.40014964 -241.31982422 236.67480469 C-240.79583723 236.15217013 -240.27185024 235.62953557 -239.73198485 235.0910636 C-231.21643532 226.59775614 -222.69707567 218.10827823 -214.17678225 209.61973013 C-205.41682167 200.89212856 -196.66260269 192.15879565 -187.91329479 183.42051494 C-182.52144413 178.03589035 -177.12490062 172.6560562 -171.72224826 167.28226916 C-167.59131454 163.17253206 -163.46817107 159.05504126 -159.347929 154.93458366 C-157.65456701 153.2436515 -155.95861249 151.55531118 -154.25993538 149.86971855 C-151.9482437 147.57509954 -149.64588944 145.27150609 -147.34570312 142.96536255 C-146.6660572 142.29513726 -145.98641127 141.62491198 -145.28617001 140.93437684 C-144.67316823 140.31601861 -144.06016645 139.69766039 -143.42858887 139.06056404 C-142.89616325 138.52981966 -142.36373764 137.99907528 -141.81517792 137.45224774 C-140.39139744 135.60496639 -139.97310422 134.10951532 -139.56640625 131.83203125 C-145.34227731 134.12539182 -150.51548496 137.03890903 -155.81640625 140.26953125 C-156.69409668 140.80030273 -157.57178711 141.33107422 -158.47607422 141.87792969 C-165.03565102 145.86048788 -171.53268572 149.93752501 -178.00805664 154.05517578 C-184.71753203 158.31596245 -191.47973567 162.48751776 -198.25390625 166.64453125 C-210.7341225 174.30607838 -223.15781657 182.05516267 -235.56640625 189.83203125 C-248.95855038 198.22532554 -262.3756754 206.57412547 -275.84399414 214.84472656 C-284.21440671 219.98901003 -292.55236796 225.18350922 -300.87890625 230.3984375 C-308.1192081 234.93199507 -315.37779482 239.43505358 -322.64501953 243.92529297 C-329.19553419 247.97579921 -335.72672974 252.056547 -342.25390625 256.14453125 C-351.75193707 262.09155184 -361.28675724 267.97657523 -370.83666992 273.83984375 C-378.26851364 278.40678043 -385.67436217 283.0134922 -393.06640625 287.64453125 C-396.89867367 290.04207351 -400.73195124 292.43798923 -404.56640625 294.83203125 C-405.40703613 295.35700195 -406.24766602 295.88197266 -407.11376953 296.42285156 C-412.23371576 299.61212348 -417.37749931 302.75614577 -422.56640625 305.83203125 C-423.20835937 306.21472168 -423.8503125 306.59741211 -424.51171875 306.99169922 C-434.13167607 312.65530063 -443.71143737 316.25974012 -454.56640625 318.83203125 C-455.23333496 318.99574219 -455.90026367 319.15945313 -456.58740234 319.328125 C-473.19815693 323.27200787 -491.92070508 323.66834519 -508.56640625 319.83203125 C-510.39171875 319.41244141 -510.39171875 319.41244141 -512.25390625 318.984375 C-526.42812639 315.45510849 -539.36612183 309.1436573 -552.56640625 303.01953125 C-562.572123 298.381079 -572.58998379 293.78866396 -582.7109375 289.40625 C-584.34961453 288.69312708 -585.98828648 287.97999249 -587.62695312 287.2668457 C-589.97737981 286.24480012 -592.32937578 285.22802334 -594.68920898 284.22787476 C-604.03673135 280.2661814 -612.34258513 276.50779088 -618.56640625 268.14453125 C-620.3155782 262.35039916 -620.8702106 256.14787935 -618.6171875 250.41796875 C-613.99625163 242.63380549 -607.76978549 239.847215 -599.56640625 236.83203125 C-596.85681217 235.83541501 -594.14844282 234.8355744 -591.44140625 233.83203125 C-590.73991455 233.57252686 -590.03842285 233.31302246 -589.31567383 233.0456543 C-585.27866243 231.53362741 -581.4765782 229.8594789 -577.68359375 227.828125 C-574.71975936 226.43370107 -571.65924226 225.40765815 -568.56640625 224.33203125 C-564.11415103 222.78198684 -559.96665926 221.13630543 -555.8125 218.9296875 C-550.23692623 216.20492884 -544.34009825 214.09960719 -538.56640625 211.83203125 C-536.92005621 211.16664163 -535.27415037 210.50015069 -533.62890625 209.83203125 C-530.66199362 208.63930255 -527.68030611 207.4990005 -524.6796875 206.39453125 C-515.50116801 203.02862629 -515.50116801 203.02862629 -506.68359375 198.828125 C-502.63903719 196.92524323 -498.36090194 195.59927071 -494.12890625 194.17578125 C-491.55443831 193.20471001 -489.29614302 192.22381143 -486.87646484 190.96875 C-482.68195242 188.84964298 -478.40376056 187.04655259 -474.04296875 185.30078125 C-473.2567514 184.98298706 -472.47053406 184.66519287 -471.66049194 184.33776855 C-469.17202881 183.33276897 -466.68176026 182.33233474 -464.19140625 181.33203125 C-462.52982728 180.6617573 -460.86836796 179.99118667 -459.20703125 179.3203125 C-455.31829467 177.75086594 -451.42774225 176.18599508 -447.53619385 174.62353516 C-445.84360183 173.94341452 -444.15193407 173.26099453 -442.46044922 172.578125 C-437.48428003 170.57355675 -432.47940821 168.67479036 -427.44140625 166.83203125 C-422.69869171 165.08000507 -418.14169179 163.21568417 -413.68359375 160.828125 C-409.55749758 158.88688049 -405.18191038 157.54589285 -400.87890625 156.05078125 C-398.30379447 155.10333446 -395.97584529 154.11983487 -393.56640625 152.83203125 C-390.11522528 150.99238254 -386.57459007 149.7336481 -382.87890625 148.45703125 C-378.13397416 146.80969593 -373.60092376 144.9913253 -369.06640625 142.83203125 C-363.39662584 140.13213582 -357.63433339 138.02931301 -351.703125 135.98046875 C-348.54987306 134.825978 -345.70592249 133.44108303 -342.75390625 131.86328125 C-339.76579901 130.45460212 -336.68614764 129.41600919 -333.56640625 128.33203125 C-329.11415103 126.78198684 -324.96665926 125.13630543 -320.8125 122.9296875 C-315.23692623 120.20492884 -309.34009825 118.09960719 -303.56640625 115.83203125 C-301.92005621 115.16664163 -300.27415037 114.50015069 -298.62890625 113.83203125 C-295.66199362 112.63930255 -292.68030611 111.4990005 -289.6796875 110.39453125 C-280.50116801 107.02862629 -280.50116801 107.02862629 -271.68359375 102.828125 C-267.55749758 100.88688049 -263.18191038 99.54589285 -258.87890625 98.05078125 C-256.30379447 97.10333446 -253.97584529 96.11983487 -251.56640625 94.83203125 C-248.11522528 92.99238254 -244.57459007 91.7336481 -240.87890625 90.45703125 C-236.13397416 88.80969593 -231.60092376 86.9913253 -227.06640625 84.83203125 C-221.39662584 82.13213582 -215.63433339 80.02931301 -209.703125 77.98046875 C-206.54987306 76.825978 -203.70592249 75.44108303 -200.75390625 73.86328125 C-196.60408346 71.90693622 -192.20823236 70.55503863 -187.87890625 69.05078125 C-185.30379447 68.10333446 -182.97584529 67.11983487 -180.56640625 65.83203125 C-177.11522528 63.99238254 -173.57459007 62.7336481 -169.87890625 61.45703125 C-165.13397416 59.80969593 -160.60092376 57.9913253 -156.06640625 55.83203125 C-150.39662584 53.13213582 -144.63433339 51.02931301 -138.703125 48.98046875 C-135.54987306 47.825978 -132.70592249 46.44108303 -129.75390625 44.86328125 C-125.60408346 42.90693622 -121.20823236 41.55503863 -116.87890625 40.05078125 C-114.30379447 39.10333446 -111.97584529 38.11983487 -109.56640625 36.83203125 C-106.11522528 34.99238254 -102.57459007 33.7336481 -98.87890625 32.45703125 C-94.13397416 30.80969593 -89.60092376 28.9913253 -85.06640625 26.83203125 C-79.39662584 24.13213582 -73.63433339 22.02931301 -67.703125 19.98046875 C-64.54987306 18.825978 -61.70592249 17.44108303 -58.75390625 15.86328125 C-54.60408346 13.90693622 -50.20823236 12.55503863 -45.87890625 11.05078125 C-43.30379447 10.10333446 -40.97584529 9.11983487 -38.56640625 7.83203125 C-28.30120464 2.37795005 -11.47438884 -5.22198213 0 0 Z " fill="#FEFEFE" transform="translate(736.56640625,253.16796875)"/>
</svg>
